<svg width="354" height="38" viewBox="0 0 354 38" fill="none" xmlns="http://www.w3.org/2000/svg">
<path d="M115.75 33.1935L111.512 22.0195L113.323 21.5265L115.915 28.4692L116.615 30.9341L117.355 28.4692L119.989 21.5265L121.758 22.0195L117.602 33.1935H115.75Z" fill="white"/>
<path d="M131.84 21.5265C132.58 21.5265 133.239 21.6908 133.979 21.9784C134.638 22.266 135.255 22.6357 135.707 23.2108L134.514 24.4022C134.226 24.1146 133.897 23.9092 133.485 23.6217C133.033 23.4163 132.457 23.293 131.798 23.293C131.593 23.293 131.305 23.293 131.017 23.3341C130.729 23.3752 130.44 23.4573 130.235 23.5395C130.029 23.6217 129.782 23.8271 129.618 24.0325C129.453 24.2379 129.412 24.5254 129.412 24.8541C129.412 25.2649 129.576 25.5114 129.906 25.7579C130.235 25.9633 130.687 26.1687 131.181 26.333C131.675 26.4973 132.251 26.6617 132.868 26.7849C133.485 26.9492 133.979 27.1135 134.555 27.36C135.049 27.5654 135.502 27.9352 135.831 28.3049C136.16 28.7157 136.325 29.2087 136.325 29.8249C136.325 31.0162 135.913 31.9611 135.131 32.6184C134.35 33.2757 133.239 33.6454 131.716 33.6454C130.605 33.6454 129.618 33.4811 128.836 33.0703C128.054 32.6595 127.437 32.0433 126.984 31.2217L128.383 30.3179C128.589 30.5233 128.795 30.7698 129 30.9341C129.206 31.0984 129.453 31.3449 129.741 31.4271C130.029 31.5914 130.317 31.7146 130.646 31.7557C130.975 31.7968 131.387 31.8789 131.881 31.8789C132.086 31.8789 132.374 31.879 132.662 31.8379C132.951 31.7968 133.239 31.7146 133.485 31.5503C133.691 31.4271 133.938 31.2217 134.103 30.9752C134.267 30.7287 134.308 30.4 134.308 30.0303C134.308 29.5784 134.144 29.2498 133.815 29.0033C133.485 28.7979 133.033 28.5925 132.539 28.4281C132.045 28.2638 131.469 28.1406 130.893 28.0173C130.276 27.8941 129.782 27.7298 129.247 27.4422C128.753 27.2368 128.301 26.8671 127.972 26.4152C127.642 25.9633 127.478 25.3881 127.478 24.6076C127.478 23.9914 127.642 23.5395 127.93 23.1698C128.218 22.759 128.589 22.4303 129 22.2249C129.453 22.0195 129.906 21.773 130.399 21.6498C130.852 21.5676 131.346 21.5265 131.84 21.5265Z" fill="white"/>
<path d="M143.978 27.9762C143.978 29.3319 144.266 30.2768 144.884 30.893C145.501 31.5092 146.406 31.7968 147.682 31.7968C148.299 31.7968 148.793 31.6735 149.245 31.386C149.698 31.1806 150.027 30.7697 150.356 30.3589L152.085 31.0984C151.632 31.8378 151.015 32.4541 150.233 32.8238C149.451 33.2757 148.546 33.44 147.517 33.44C146.488 33.44 145.665 33.2757 144.925 33.0292C144.184 32.7416 143.649 32.3719 143.196 31.8379C142.744 31.3449 142.456 30.7287 142.25 29.9892C142.044 29.2497 141.962 28.4692 141.962 27.5654V27.36C141.962 26.9492 141.962 26.6206 141.962 26.2508C141.962 25.9222 142.003 25.5114 142.085 25.1827C142.127 24.8541 142.291 24.5254 142.415 24.1557C142.579 23.827 142.826 23.4984 143.155 23.1287C143.649 22.5535 144.266 22.1016 145.007 21.8551C145.748 21.5676 146.447 21.4443 147.188 21.4443C148.011 21.4443 148.834 21.5676 149.451 21.8551C150.109 22.1427 150.686 22.5124 151.138 22.9643C151.591 23.4573 151.92 24.0324 152.167 24.6897C152.414 25.347 152.496 26.0865 152.496 26.867V27.8941H143.978V27.9762ZM143.978 26.3741H150.603V26.1687C150.603 25.7578 150.562 25.4292 150.397 25.0595C150.233 24.7308 149.986 24.4022 149.739 24.1146C149.451 23.827 149.122 23.6216 148.669 23.4573C148.258 23.293 147.764 23.1697 147.27 23.1697C146.776 23.1697 146.324 23.2108 145.912 23.3751C145.501 23.5395 145.13 23.786 144.842 24.0324C144.554 24.32 144.349 24.6487 144.184 24.9773C144.019 25.306 143.978 25.7168 143.978 26.0865V26.3741Z" fill="white"/>
<path d="M162.001 33.1935L157.804 22.0195L159.533 21.5265L162.166 28.4692L162.907 30.9341L163.647 28.4692L166.281 21.5265L168.009 22.0195L163.812 33.1935H162.001Z" fill="white"/>
<path d="M182.37 27.5243V27.0724C182.37 25.9633 182.082 25.0595 181.547 24.3611C181.259 24.0324 180.888 23.7038 180.436 23.5395C179.983 23.3341 179.489 23.2519 178.872 23.2519C178.296 23.2519 177.802 23.3751 177.35 23.5395C176.897 23.7038 176.568 23.9914 176.239 24.32C175.621 24.9773 175.333 25.9633 175.333 27.1135V27.6065C175.333 28.2227 175.375 28.8389 175.539 29.4141C175.663 29.9892 175.951 30.4411 176.28 30.8108C176.568 31.1395 176.897 31.427 177.35 31.5914C177.802 31.7557 178.296 31.8789 178.913 31.8789C179.489 31.8789 179.983 31.8378 180.354 31.6735C180.765 31.5092 181.094 31.2627 181.423 30.9341C181.835 30.5233 182.082 30.0303 182.246 29.4962C182.246 28.7978 182.37 28.1406 182.37 27.5243ZM182.699 31.8379C182.205 32.413 181.588 32.7827 180.888 33.0703C180.23 33.3579 179.489 33.4811 178.749 33.4811C178.008 33.4811 177.309 33.3579 176.609 33.0703C175.951 32.7827 175.333 32.413 174.799 31.8379C174.222 31.2627 173.852 30.6054 173.688 29.8249C173.523 29.0854 173.399 28.2638 173.399 27.4833V27.0314C173.399 26.2508 173.523 25.5114 173.688 24.8951C173.852 24.2789 174.264 23.6627 174.881 23.0465C175.375 22.4714 175.992 22.1016 176.691 21.8551C177.35 21.5676 178.049 21.4443 178.831 21.4443C179.572 21.4443 180.271 21.5676 180.93 21.8551C181.547 22.0606 182.164 22.4714 182.658 23.0465C183.234 23.6216 183.604 24.2379 183.851 24.8541C184.057 25.5114 184.18 26.2097 184.18 26.9903V27.4422C184.18 28.2638 184.057 29.0033 183.892 29.7427C183.687 30.5233 183.316 31.2216 182.699 31.8379Z" fill="white"/>
<path d="M190.394 17.7059L192.369 17.1308V30.4411C192.369 31.3448 192.822 31.7967 193.768 31.7967H194.961V33.1935C194.673 33.3167 194.385 33.3578 194.138 33.3989C193.85 33.44 193.562 33.44 193.356 33.44C192.945 33.44 192.575 33.3989 192.245 33.2346C191.916 33.0703 191.587 32.8238 191.299 32.5773C191.011 32.3308 190.846 31.9611 190.682 31.6324C190.517 31.2216 190.476 30.8519 190.476 30.4L190.394 17.7059Z" fill="white"/>
<path d="M208.828 27.5243V27.0724C208.828 25.9633 208.54 25.0595 208.005 24.3611C207.717 24.0324 207.347 23.7038 206.894 23.5395C206.442 23.3341 205.948 23.2519 205.331 23.2519C204.755 23.2519 204.261 23.3751 203.808 23.5395C203.356 23.7038 203.026 23.9914 202.697 24.32C202.08 24.9773 201.792 25.9633 201.792 27.1135V27.6065C201.792 28.2227 201.833 28.8389 201.998 29.4141C202.121 29.9892 202.409 30.4411 202.738 30.8108C203.026 31.1395 203.356 31.427 203.808 31.5914C204.261 31.7557 204.755 31.8789 205.372 31.8789C205.948 31.8789 206.442 31.8378 206.812 31.6735C207.223 31.5092 207.553 31.2627 207.882 30.9341C208.293 30.5233 208.54 30.0303 208.705 29.4962C208.746 28.7978 208.828 28.1406 208.828 27.5243ZM209.199 31.8379C208.705 32.413 208.088 32.7827 207.388 33.0703C206.73 33.3579 205.989 33.4811 205.248 33.4811C204.508 33.4811 203.808 33.3579 203.109 33.0703C202.45 32.7827 201.833 32.413 201.298 31.8379C200.722 31.2627 200.352 30.6054 200.187 29.8249C200.022 29.0854 199.899 28.2638 199.899 27.4833V27.0314C199.899 26.2508 200.022 25.5114 200.187 24.8951C200.352 24.2789 200.763 23.6627 201.38 23.0465C201.874 22.4714 202.491 22.1016 203.191 21.8551C203.849 21.5676 204.549 21.4443 205.331 21.4443C206.071 21.4443 206.771 21.5676 207.429 21.8551C208.046 22.0606 208.664 22.4714 209.157 23.0465C209.734 23.6216 210.104 24.2379 210.351 24.8541C210.556 25.5114 210.68 26.2097 210.68 26.9903V27.4422C210.68 28.2638 210.556 29.0033 210.392 29.7427C210.227 30.5233 209.816 31.2216 209.199 31.8379Z" fill="white"/>
<path d="M223.806 23.7038C223.518 23.5394 223.189 23.4162 222.736 23.293C222.284 23.1697 221.914 23.1697 221.461 23.1697C220.35 23.1697 219.445 23.4984 218.827 24.2378C218.21 24.9773 217.881 25.9221 217.881 27.1546V28.5103C217.881 28.9621 217.922 29.3319 218.004 29.7427C218.128 30.1535 218.21 30.4822 218.457 30.8108C218.663 31.1394 218.951 31.3859 219.239 31.5503C219.568 31.7146 219.98 31.8378 220.473 31.8378C220.926 31.8378 221.42 31.6735 222.037 31.427C222.654 31.1394 223.23 30.6876 223.847 30.0303V23.7038H223.806ZM223.806 17.7059L225.781 17.1308V30.5232C225.781 31.0984 225.823 31.5503 225.946 31.92C226.07 32.3308 226.234 32.7005 226.44 33.1524H224.341C224.218 32.9881 224.136 32.8238 224.053 32.5362C224.012 32.2486 223.93 32.0432 223.93 31.7967C223.642 32.0843 223.313 32.3719 222.901 32.6184C222.613 32.8238 222.243 33.0292 221.831 33.1935C221.379 33.3578 220.926 33.3989 220.473 33.3989C219.65 33.3989 218.951 33.2757 218.375 32.9881C217.799 32.7005 217.305 32.3719 216.976 31.8789C216.564 31.427 216.358 30.8519 216.194 30.2357C216.029 29.6194 215.988 28.9621 215.988 28.2638V27.2778C215.988 25.3059 216.441 23.9092 217.387 22.9643C218.334 22.0194 219.733 21.5265 221.667 21.5265C222.407 21.5265 223.107 21.6908 223.847 21.9784V17.7059H223.806Z" fill="white"/>
<path d="M247.549 21.773C248.166 21.773 248.783 21.8962 249.277 22.1016C249.771 22.307 250.224 22.5946 250.553 23.0054C250.882 23.4162 251.17 23.827 251.376 24.3611C251.581 24.8541 251.664 25.4292 251.664 26.0454V33.1525H249.689V25.7579C249.689 25.0184 249.483 24.4844 249.071 24.0325C248.66 23.5806 248.125 23.3752 247.384 23.3752C246.479 23.3752 245.738 23.5806 245.245 24.0325C244.751 24.4844 244.422 25.1006 244.216 25.7579V33.1114H242.241V17.6238L244.216 17.0487V23.0465C244.668 22.4714 245.245 22.1016 245.779 21.9373C246.438 21.8552 247.014 21.773 247.549 21.773Z" fill="white"/>
<path d="M266.601 27.5243V27.0724C266.601 25.9633 266.313 25.0595 265.778 24.3611C265.49 24.0324 265.119 23.7038 264.667 23.5395C264.214 23.3341 263.72 23.2519 263.103 23.2519C262.527 23.2519 262.033 23.3751 261.581 23.5395C261.128 23.7038 260.799 23.9914 260.469 24.32C259.852 24.9773 259.564 25.9633 259.564 27.1135V27.6065C259.564 28.2227 259.605 28.8389 259.77 29.4141C259.893 29.9892 260.181 30.4411 260.511 30.8108C260.799 31.1395 261.128 31.427 261.581 31.5914C262.033 31.7557 262.527 31.8789 263.144 31.8789C263.72 31.8789 264.214 31.8378 264.584 31.6735C264.996 31.5092 265.325 31.2627 265.654 30.9341C266.066 30.5233 266.313 30.0303 266.477 29.4962C266.559 28.7978 266.601 28.1406 266.601 27.5243ZM266.93 31.8379C266.436 32.413 265.819 32.7827 265.119 33.0703C264.461 33.3579 263.72 33.4811 262.98 33.4811C262.239 33.4811 261.539 33.3579 260.84 33.0703C260.181 32.7827 259.564 32.413 259.029 31.8379C258.453 31.2627 258.083 30.6054 257.918 29.8249C257.754 29.0854 257.63 28.2638 257.63 27.4833V27.0314C257.63 26.2508 257.754 25.5114 257.918 24.8951C258.083 24.2789 258.494 23.6627 259.112 23.0465C259.605 22.4714 260.223 22.1016 260.922 21.8551C261.58 21.5676 262.28 21.4443 263.062 21.4443C263.803 21.4443 264.502 21.5676 265.16 21.8551C265.778 22.0606 266.395 22.4714 266.889 23.0465C267.465 23.6216 267.835 24.2379 268.082 24.8541C268.288 25.5114 268.411 26.2097 268.411 26.9903V27.4422C268.411 28.2638 268.288 29.0033 268.123 29.7427C267.959 30.5233 267.547 31.2216 266.93 31.8379Z" fill="white"/>
<path d="M277.999 33.1935L273.802 22.0195L275.53 21.5265L278.163 28.4692L278.904 30.9341L279.645 28.4692L282.278 21.5265L284.006 22.0195L279.809 33.1935H277.999Z" fill="white"/>
<path d="M291.866 22.9233C292.154 22.4714 292.483 22.1427 292.895 21.8552C293.306 21.6497 293.718 21.4443 294.294 21.4443C294.911 21.4443 295.528 21.6087 296.186 21.9373L295.528 23.7449C295.075 23.5395 294.623 23.4162 294.252 23.4162C293.841 23.4162 293.512 23.5395 293.224 23.7038C292.936 23.9092 292.648 24.1968 292.483 24.5254C292.318 24.8541 292.154 25.306 292.072 25.7579C291.948 26.2097 291.948 26.7849 291.948 27.2779V33.1114H289.973V24.4843C289.973 23.7038 289.808 22.9233 289.479 22.2249L291.29 21.4033C291.413 21.6087 291.496 21.8552 291.619 22.0606C291.742 22.266 291.784 22.5535 291.825 22.8411V22.9233H291.866Z" fill="white"/>
<path d="M305.033 31.7557C305.321 31.7557 305.609 31.7146 305.98 31.5914C306.309 31.4681 306.72 31.3038 307.05 31.1395C307.461 30.9752 307.79 30.8108 308.119 30.6465C308.449 30.4822 308.737 30.3179 309.025 30.1946V28.2227H304.828C304.622 28.2227 304.375 28.2638 304.169 28.3871C303.963 28.5103 303.758 28.5925 303.593 28.7979C303.429 29.0033 303.305 29.1265 303.264 29.373C303.14 29.5784 303.141 29.8249 303.141 30.0303C303.141 30.3179 303.182 30.5233 303.305 30.7698C303.429 30.9752 303.593 31.1806 303.758 31.3449C303.922 31.5092 304.169 31.6325 304.375 31.7557C304.581 31.7557 304.786 31.7557 305.033 31.7557ZM306.391 21.5265C307.008 21.5265 307.626 21.6498 308.202 21.8141C308.778 21.9784 309.23 22.266 309.642 22.5946C310.053 22.9233 310.383 23.3752 310.671 23.8681C310.876 24.3611 311 24.9773 311 25.6757V30.6054C311 31.0984 311.041 31.6325 311.164 31.9611C311.288 32.3719 311.452 32.7417 311.658 33.1935H309.56C309.436 33.0292 309.354 32.7827 309.272 32.5773C309.23 32.2898 309.148 32.0844 309.148 31.8379C308.531 32.2898 307.873 32.6595 307.05 32.9471C306.309 33.2757 305.527 33.3989 304.745 33.3989C304.252 33.3989 303.717 33.3579 303.305 33.1935C302.852 33.0292 302.482 32.7827 302.112 32.4541C301.783 32.1254 301.495 31.7968 301.33 31.3449C301.165 30.893 301.042 30.4411 301.042 29.9071C301.042 29.4141 301.165 28.9622 301.33 28.5103C301.536 28.0995 301.783 27.7298 302.112 27.4422C302.441 27.1546 302.852 26.8671 303.305 26.7027C303.758 26.5384 304.21 26.4973 304.704 26.4973H308.984V25.4703C308.984 24.6898 308.778 24.0735 308.243 23.7449C307.749 23.3341 307.132 23.1698 306.35 23.1698C305.692 23.1698 305.074 23.2108 304.54 23.3752C304.046 23.5395 303.47 23.8271 302.894 24.1557L302.071 22.7179C302.4 22.5125 302.811 22.3071 303.099 22.1427C303.429 21.9784 303.758 21.8552 304.128 21.7319C304.457 21.6087 304.786 21.5676 305.198 21.5265C305.609 21.5265 305.98 21.5265 306.391 21.5265Z" fill="white"/>
<path d="M318.16 23.293H316.884V21.773H318.16V19.3081L320.135 18.733V21.6908H322.233L321.781 23.2108H320.135V30.3179C320.135 31.2216 320.587 31.6735 321.534 31.6735H322.357V33.0703C322.069 33.1935 321.863 33.2346 321.698 33.2346C321.534 33.2757 321.287 33.2757 321.081 33.2757C320.67 33.2757 320.299 33.2346 319.97 33.0703C319.641 32.906 319.312 32.7417 319.024 32.4541C318.736 32.1665 318.571 31.8379 318.407 31.5092C318.242 31.0984 318.201 30.7287 318.201 30.2768V23.293H318.16Z" fill="white"/>
<path d="M336.594 27.5243V27.0724C336.594 25.9633 336.306 25.0595 335.771 24.3611C335.483 24.0324 335.113 23.7038 334.66 23.5395C334.208 23.3341 333.714 23.2519 333.097 23.2519C332.52 23.2519 332.027 23.3751 331.574 23.5395C331.121 23.7038 330.792 23.9914 330.463 24.32C329.846 24.9773 329.558 25.9633 329.558 27.1135V27.6065C329.558 28.2227 329.599 28.8389 329.764 29.4141C329.887 29.9892 330.175 30.4411 330.504 30.8108C330.792 31.1395 331.121 31.427 331.574 31.5914C332.027 31.7557 332.52 31.8789 333.138 31.8789C333.714 31.8789 334.208 31.8378 334.578 31.6735C334.989 31.5092 335.319 31.2627 335.648 30.9341C336.059 30.5233 336.306 30.0303 336.471 29.4962C336.553 28.7978 336.594 28.1406 336.594 27.5243ZM337.006 31.8379C336.512 32.413 335.895 32.7827 335.195 33.0703C334.537 33.3579 333.796 33.4811 333.055 33.4811C332.315 33.4811 331.615 33.3579 330.916 33.0703C330.257 32.7827 329.64 32.413 329.105 31.8379C328.529 31.2627 328.159 30.6054 327.994 29.8249C327.83 29.0854 327.706 28.2638 327.706 27.4833V27.0314C327.706 26.2508 327.83 25.5114 327.994 24.8951C328.159 24.2789 328.57 23.6627 329.187 23.0465C329.681 22.4714 330.298 22.1016 330.998 21.8551C331.656 21.5676 332.356 21.4443 333.138 21.4443C333.878 21.4443 334.578 21.5676 335.236 21.8551C335.853 22.0606 336.471 22.4714 336.965 23.0465C337.541 23.6216 337.911 24.2379 338.158 24.8541C338.364 25.5114 338.487 26.2097 338.487 26.9903V27.4422C338.487 28.2638 338.364 29.0033 338.199 29.7427C337.993 30.5233 337.623 31.2216 337.006 31.8379Z" fill="white"/>
<path d="M347.992 33.1935L343.795 22.0195L345.523 21.5265L348.157 28.4692L348.898 30.9341L349.638 28.4692L352.272 21.5265L354 22.0195L349.803 33.1935H347.992Z" fill="white"/>
<path d="M32.7542 34.0562C32.1369 33.3168 31.5609 32.6184 30.9025 31.92C29.9972 30.893 29.0096 29.9481 27.9398 29.0032C25.3063 26.6616 22.2613 24.4022 19.0517 22.7178C15.6364 20.9103 12.468 19.9243 9.38184 19.4724C7.28327 19.1438 5.22585 19.0616 3.12728 19.1849L1.89283 20.8281L1.72823 20.6638L2.83924 19.2259C1.89283 19.267 0.987565 19.3903 0.0411509 19.5135L0 19.3081C1.02871 19.1849 2.01627 19.1027 3.04498 19.0205L5.06126 16.3914C4.23829 16.4324 3.33302 16.5146 2.42776 16.5557V16.3503C3.37417 16.227 4.32058 16.1859 5.30815 16.1859L6.50145 14.6249L6.66604 14.7892L5.59619 16.1859C7.85935 16.1449 10.0402 16.227 12.1799 16.5968C15.3072 17.0897 18.4345 18.1578 21.7675 19.8422C24.4833 21.1978 26.9934 22.9232 29.3388 24.8951C31.7666 26.9081 33.9886 29.2086 35.9637 31.7557C39.0499 31.5503 42.0126 30.4 44.8929 28.9622C47.7733 27.4422 50.5714 25.5524 53.3284 23.6216C53.9867 23.1286 54.7274 22.6768 55.3446 22.2249C55.9619 21.773 56.6202 21.3211 57.3198 20.9514C57.2786 20.6227 57.2786 20.2941 57.2786 20.0476C57.2375 19.7189 57.2375 19.4314 57.1552 19.1027C57.0317 18.1578 56.9906 17.213 56.8671 16.227C56.2911 12.2011 55.5092 8.21622 54.3571 4.27243L52.382 5.83351L52.2174 5.66919L54.2336 4.02595C53.9456 2.99892 53.6164 2.05405 53.2872 1.06811L53.493 1.02703C53.8222 1.97189 54.1102 2.91676 54.3982 3.94378L57.1963 1.68432C57.0317 1.10919 56.9083 0.616216 56.7437 0.0410812L56.9494 0C57.114 0.492973 57.2375 1.02703 57.4021 1.52L59.1303 0.123243L59.2949 0.287567L57.4432 1.7254C57.649 2.50595 57.8958 3.40973 58.0604 4.23135C58.8011 7.18919 59.4183 10.1881 59.7887 13.187C59.9533 14.4195 60.1179 15.6519 60.2413 16.7611C60.2825 17.213 60.2825 17.5827 60.3648 17.9524C60.4059 18.2811 60.4059 18.5686 60.4059 18.8973C68.5121 14.1319 74.6021 14.7481 79.6634 18.1578C81.8031 19.5957 83.6959 21.5676 85.5476 23.827C87.3581 25.9632 89.2098 28.5924 91.0615 31.7968L92.6251 30.3589L92.7897 30.5232L91.1438 32.0432C91.7199 32.947 92.2136 33.8508 92.7074 34.7546L92.5017 34.8778C92.0079 33.9741 91.4318 33.1524 90.938 32.2486L88.3045 34.7135C88.7983 35.6173 89.3744 36.5622 89.8682 37.4659L89.6624 37.5892C89.1687 36.6854 88.6337 35.7816 88.1399 34.8778L86.3294 36.5622L86.1648 36.3978L88.0165 34.6724C87.1935 33.2757 86.3294 31.7968 85.4241 30.4822C82.0088 25.4292 78.7992 22.2249 75.7131 20.4584C71.5571 18.1578 66.6193 17.8292 60.5293 21.0335C60.6939 23.3751 60.7351 25.7578 60.7351 28.0995C60.7351 29.4551 60.7351 30.7286 60.7351 32.0843L62.4222 30.893L62.5456 31.0984L60.7351 32.3719C60.7351 33.3168 60.7351 34.3438 60.6939 35.2886H60.4882C60.4882 34.3849 60.4882 33.4811 60.5293 32.5362L57.7724 34.4259C57.7724 35.6173 57.7724 36.8497 57.7312 38H57.6078C57.6078 36.8908 57.6078 35.6995 57.649 34.5903L55.5504 36.0281L55.4269 35.8227L57.6078 34.2616C57.6078 32.9881 57.6078 31.6324 57.6078 30.3178C57.5667 27.853 57.4844 25.3881 57.3198 22.8411C56.5791 23.293 55.9207 23.7449 55.18 24.2378C54.3982 24.7308 53.6164 25.3059 52.8346 25.7989C49.1724 28.3049 45.8805 30.5643 42.3417 32.2486C39.5436 33.6043 36.6221 34.5081 33.3714 34.8368C33.824 35.453 34.1944 36.0692 34.6058 36.6443L34.4001 36.7676C33.9886 36.1514 33.5771 35.5351 33.1245 34.8778C32.3838 34.9189 31.7254 35.0011 30.9848 35.0011V34.6724C31.6431 34.6724 32.3427 34.6314 32.9599 34.6314C33.0422 34.3438 32.9188 34.2616 32.7542 34.0562Z" fill="white"/>
</svg>
