<?xml version="1.0" encoding="utf-8"?>
<!-- Generator: Adobe Illustrator 18.0.0, SVG Export Plug-In . SVG Version: 6.00 Build 0)  -->
<!DOCTYPE svg PUBLIC "-//W3C//DTD SVG 1.1//EN" "http://www.w3.org/Graphics/SVG/1.1/DTD/svg11.dtd">
<svg version="1.1" id="Layer_1" xmlns="http://www.w3.org/2000/svg" xmlns:xlink="http://www.w3.org/1999/xlink" x="0px" y="0px"
	 viewBox="0 346.5 1024 74.1" enable-background="new 0 346.5 1024 74.1" xml:space="preserve">
<g>
	<g>
		<path fill="#FFFFFF" d="M30.2,346.5H15.7H0v74.1h15.7v-28.8h14.5c8.4,0,22.9-6.7,22.9-22.9C53.2,352.1,38.6,346.5,30.2,346.5
			 M25.5,378.4H15.1v-18.7h10.4c0,0,10.9-0.6,10.9,9.5C36.4,378.7,25.5,378.4,25.5,378.4"/>
		<path fill="#FFFFFF" d="M118.9,346.5c-20.4,0-36.9,16.8-36.9,36.9s16.8,36.9,36.9,36.9c20.4,0,36.9-16.8,36.9-36.9
			C156.4,362.7,139.6,346.5,118.9,346.5 M118.9,406.4c-16.8,0-21-14.5-21-22.9s5.6-22.9,21-22.9s21,15.7,21,22.9
			S136,406.4,118.9,406.4"/>
		<path fill="#FFFFFF" d="M220.5,346.5h-14.5h-15.7v74.1h15.7v-28.8h14.5c8.4,0,22.9-6.7,22.9-22.9
			C244,352.1,228.9,346.5,220.5,346.5 M215.7,378.4h-10.4v-18.7h10.4c0,0,10.9-0.6,10.9,9.5C227.2,378.7,215.7,378.4,215.7,378.4"/>
		<polygon fill="#FFFFFF" points="319,359.9 319,346.5 290.7,346.5 275.3,346.5 275.3,420.7 290.7,420.7 319,420.7 319,406.4 
			290.7,406.4 290.7,389.9 319,389.9 319,376.2 290.7,376.2 290.7,359.9 		"/>
		<polygon fill="#FFFFFF" points="383,404.4 383,346.5 367.4,346.5 367.4,420.7 383,420.7 420,420.7 420,404.4 		"/>
	</g>
	<circle fill="#D8222A" cx="479.5" cy="385.1" r="11.5"/>
	<g enable-background="new    ">
		<path fill="#FFFFFF" d="M537.7,420.4l33-73.3h4.5l33,73.3h-5l-9.8-21.5h-41.1l-9.8,21.5H537.7z M554.2,394.9h37.5L573,353.5
			L554.2,394.9z"/>
		<path fill="#FFFFFF" d="M635.4,411.1c-7-7.3-10.6-16.2-10.6-27.1c0-10.9,3.6-19.9,10.6-26.9s15.7-10.6,26-10.6
			c9.5,0,17.3,2.5,23.8,7.6v5c-7-5.3-14.8-8.1-23.5-8.1c-9,0-16.8,3.1-22.9,9.5c-6.2,6.2-9.2,14.3-9.2,23.8c0,9.5,3.1,17.3,9.2,23.8
			c6.2,6.2,13.7,9.5,22.4,9.5c9.8,0,17.6-2.8,22.9-8.7v-30.2h4.8v31.6c-7,7.6-16.2,11.5-27.7,11.5
			C651.1,421.8,642.4,418.1,635.4,411.1z"/>
		<path fill="#FFFFFF" d="M719.9,420.4v-73h48.7v4.5h-43.9v26.9H761v4.5h-36.4v32.5h45.6v4.5h-50.4V420.4z"/>
		<path fill="#FFFFFF" d="M796.8,420.4v-73h4.2l49.8,64.6v-64.6h4.8v73h-4.2l-49.8-64.6v64.6H796.8z"/>
		<path fill="#FFFFFF" d="M895.3,411.1c-7-7.3-10.6-16.2-10.6-27.1c0-10.9,3.6-19.9,10.6-26.9c7-7.3,15.7-10.6,26.3-10.6
			c7.8,0,14.8,2,21,5.6v5.3c-6.4-4.2-13.1-6.4-20.7-6.4c-9,0-16.5,3.1-22.7,9.5c-6.2,6.2-9.2,14.3-9.2,23.8c0,9.5,3.1,17.3,9.2,23.8
			c6.2,6.2,13.7,9.5,22.9,9.5c8.7,0,15.9-2.5,22.4-7.6v5.3c-6.2,4.5-13.4,7-22.4,7C911,421.8,902.3,418.1,895.3,411.1z"/>
		<path fill="#FFFFFF" d="M991,420.4v-33.6l-28.5-39.4h5.9l25.2,34.7l25.2-34.7h5.6l-28.5,39.2v33.9H991z"/>
	</g>
</g>
</svg>
