<?xml version="1.0" encoding="utf-8"?>
<!-- Generator: Adobe Illustrator 18.1.0, SVG Export Plug-In . SVG Version: 6.00 Build 0)  -->
<svg version="1.1" id="Layer_1" xmlns="http://www.w3.org/2000/svg" xmlns:xlink="http://www.w3.org/1999/xlink" x="0px" y="0px"
	 viewBox="0 0 150 150" enable-background="new 0 0 150 150" xml:space="preserve">
<g>
	<path fill="#6D6D6D" d="M35.6,117.8v7c0,2.3,1.9,4.1,4.1,4.1h9.1c2.3,0,4.1-1.9,4.1-4.1v-7c-2.6,1.9-5.5,3-8.7,3
		C41.1,120.8,38.2,119.7,35.6,117.8L35.6,117.8z M35.6,117.8"/>
	<path fill="#6D6D6D" d="M58,117l0,11.8c1.1,0,1.9,0.9,1.9,1.9v14.7h6.7c1.9,0,3.4-1.6,3.4-3.5v-9.6C70.1,125.2,65.1,118.8,58,117
		L58,117z M58,117"/>
	<path fill="#6D6D6D" d="M18.6,132.5v9.6c0,1.9,1.5,3.5,3.4,3.5h6.7v-14.7c0-1.1,0.9-2,2-2V117C23.5,118.8,18.6,125.2,18.6,132.5
		L18.6,132.5z M18.6,132.5"/>
	<path fill="#6D6D6D" d="M62.3,101.3c0.3-3.3-0.8-4.7-2.2-5.3c0-0.5,0.2-2.8,0.2-3.4c0-7.5-7-14.6-13.4-16.2c0-0.1,0.1-0.2,0.1-0.3
		c0-0.8-1.1-1.4-2.6-1.4c-1.4,0-2.6,0.6-2.6,1.4c0,0.1,0,0.2,0.1,0.4c-6,1.6-13.4,8.7-13.4,16.1c0,0.5,0,0.9,0.1,1.3
		c-0.1,0.7-0.1,1.4-0.1,2.1c-1.3,0.6-2.2,2-2,5.2c0.3,3.3,1.9,4.8,3.7,5.3c2.6,6.5,7.8,11.8,14.1,11.8c6.3,0,11.5-5.3,14.1-11.8
		C60.3,106.3,62,104.7,62.3,101.3L62.3,101.3z M44.4,115.2c-7,0-12.7-9.6-12.7-17.5c0-0.5,0-1,0-1.5l2.1,2c0.9,0.9,2.3,0.9,3.3,0.2
		c1.5-1.2,4.3-2,7.4-2c3.1,0,5.9,0.8,7.4,2c1,0.8,2.4,0.7,3.3-0.2l1.8-1.8c0,0.4,0,0.8,0,1.2C57,105.7,51.4,115.2,44.4,115.2
		L44.4,115.2z M44.4,115.2"/>
</g>
<g>
	<path fill="#6D6D6D" d="M96.7,117.8v7c0,2.3,1.9,4.1,4.1,4.1h9.1c2.3,0,4.1-1.9,4.1-4.1v-7c-2.6,1.9-5.5,3-8.7,3
		C102.1,120.8,99.2,119.7,96.7,117.8L96.7,117.8z M96.7,117.8"/>
	<path fill="#6D6D6D" d="M119,117l0,11.8c1.1,0,1.9,0.9,1.9,1.9v14.7h6.7c1.9,0,3.4-1.6,3.4-3.5v-9.6
		C131.1,125.2,126.1,118.8,119,117L119,117z M119,117"/>
	<path fill="#6D6D6D" d="M79.6,132.5v9.6c0,1.9,1.5,3.5,3.4,3.5h6.7v-14.7c0-1.1,0.9-2,2-2V117C84.5,118.8,79.6,125.2,79.6,132.5
		L79.6,132.5z M79.6,132.5"/>
	<path fill="#6D6D6D" d="M123.3,101.3c0.3-3.3-0.8-4.7-2.2-5.3c0-0.5,0.2-2.8,0.2-3.4c0-7.5-7-14.6-13.4-16.2c0-0.1,0.1-0.2,0.1-0.3
		c0-0.8-1.1-1.4-2.6-1.4c-1.4,0-2.6,0.6-2.6,1.4c0,0.1,0,0.2,0.1,0.4c-6,1.6-13.4,8.7-13.4,16.1c0,0.5,0,0.9,0.1,1.3
		c-0.1,0.7-0.1,1.4-0.1,2.1c-1.3,0.6-2.2,2-2,5.2c0.3,3.3,1.9,4.8,3.7,5.3c2.6,6.5,7.8,11.8,14.1,11.8c6.3,0,11.5-5.3,14.1-11.8
		C121.3,106.3,123,104.7,123.3,101.3L123.3,101.3z M105.4,115.2c-7,0-12.7-9.6-12.7-17.5c0-0.5,0-1,0-1.5l2.1,2
		c0.9,0.9,2.3,0.9,3.3,0.2c1.5-1.2,4.3-2,7.4-2c3.1,0,5.9,0.8,7.4,2c1,0.8,2.4,0.7,3.3-0.2l1.8-1.8c0,0.4,0,0.8,0,1.2
		C118,105.7,112.4,115.2,105.4,115.2L105.4,115.2z M105.4,115.2"/>
</g>
<g>
	<path fill="#6D6D6D" d="M65.1,47v7c0,2.3,1.9,4.1,4.1,4.1h9.1c2.3,0,4.1-1.9,4.1-4.1v-7c-2.6,1.9-5.5,3-8.7,3
		C70.6,50,67.7,48.9,65.1,47L65.1,47z M65.1,47"/>
	<path fill="#6D6D6D" d="M87.5,46.3l0,11.8c1.1,0,1.9,0.9,1.9,1.9v14.7h6.7c1.9,0,3.4-1.6,3.4-3.5v-9.6
		C99.6,54.4,94.6,48.1,87.5,46.3L87.5,46.3z M87.5,46.3"/>
	<path fill="#6D6D6D" d="M48.1,61.8v9.6c0,1.9,1.5,3.5,3.4,3.5h6.7V60.1c0-1.1,0.9-2,2-2V46.3C53,48.1,48.1,54.4,48.1,61.8
		L48.1,61.8z M48.1,61.8"/>
	<path fill="#6D6D6D" d="M91.8,30.6c0.3-3.3-0.8-4.7-2.2-5.3c0-0.5,0.2-2.8,0.2-3.4c0-7.5-7-14.6-13.4-16.2c0-0.1,0.1-0.2,0.1-0.3
		c0-0.8-1.1-1.4-2.6-1.4c-1.4,0-2.6,0.6-2.6,1.4c0,0.1,0,0.2,0.1,0.4c-6,1.6-13.4,8.7-13.4,16.1c0,0.5,0,0.9,0.1,1.3
		C58.1,24,58,24.7,58,25.4c-1.3,0.6-2.2,2-2,5.2c0.3,3.3,1.9,4.8,3.7,5.3c2.6,6.5,7.8,11.8,14.1,11.8c6.3,0,11.5-5.3,14.1-11.8
		C89.8,35.5,91.5,34,91.8,30.6L91.8,30.6z M73.8,44.5c-7,0-12.7-9.6-12.7-17.5c0-0.5,0-1,0-1.5l2.1,2c0.9,0.9,2.3,0.9,3.3,0.2
		c1.5-1.2,4.3-2,7.4-2c3.1,0,5.9,0.8,7.4,2c1,0.8,2.4,0.7,3.3-0.2l1.8-1.8c0,0.4,0,0.8,0,1.2C86.5,34.9,80.9,44.5,73.8,44.5
		L73.8,44.5z M73.8,44.5"/>
</g>
</svg>
