<?xml version="1.0" encoding="utf-8"?>
<!-- Generator: Adobe Illustrator 18.1.0, SVG Export Plug-In . SVG Version: 6.00 Build 0)  -->
<svg version="1.1" id="Layer_1" xmlns="http://www.w3.org/2000/svg" xmlns:xlink="http://www.w3.org/1999/xlink" x="0px" y="0px"
	 viewBox="0 0 150 150" enable-background="new 0 0 150 150" xml:space="preserve">
<g>
	<path fill="#6D6D6D" d="M128.7,22.3H40.8c-1.2,0-2.2,1-2.2,2.2c0,1.2,1,2.2,2.2,2.2h87.8c3.6,0,6.6,3,6.6,6.6v96.6
		c0,3.7-2.9,6.6-6.6,6.6H21.1c-4.8,0-8.8-3.9-8.8-8.8c0-4.8,3.9-8.8,8.8-8.8c4.8,0,8.8,3.9,8.8,8.8c0,1.2,1,2.2,2.2,2.2
		c1.2,0,2.2-1,2.2-2.2V22.3c0-7.3-5.9-13.2-13.2-13.2S7.9,15,7.9,22.3v105.4c0,7.3,5.9,13.2,13.2,13.2h107.6c6.2,0,11-4.8,11-11
		V33.3C139.6,27.2,134.7,22.3,128.7,22.3L128.7,22.3z M12.3,22.3c0-4.8,3.9-8.8,8.8-8.8c4.8,0,8.8,3.9,8.8,8.8v95.6
		c-2.3-2.1-5.4-3.4-8.8-3.4s-6.5,1.3-8.8,3.4V22.3z M12.3,22.3"/>
	<path fill="#6D6D6D" d="M97.9,123.3c-1.2,0-2.2,1-2.2,2.2c0,1.2,1,2.2,2.2,2.2h26.3c1.2,0,2.2-1,2.2-2.2V37.7c0-1.2-1-2.2-2.2-2.2
		h-79c-1.2,0-2.2,1-2.2,2.2v87.8c0,1.2,1,2.2,2.2,2.2h43.9c1.2,0,2.2-1,2.2-2.2c0-10.2,7.7-18.5,17.6-19.6v10.9c0,1.2,1,2.2,2.2,2.2
		c1.2,0,2.2-1,2.2-2.2v-13.2c0-1.2-1-2.2-2.2-2.2c-12.6,0-22.9,9.7-24,22H47.4V88.2h41.7c1.2,0,2.2-1,2.2-2.2v-8.8
		c0-1.2-1-2.2-2.2-2.2c-1.2,0-2.2,1-2.2,2.2v6.6H47.4V39.9H87v15.4c0,1.2,1,2.2,2.2,2.2c1.2,0,2.2-1,2.2-2.2V39.9h30.7v43.9h-11
		c-1.2,0-2.2,1-2.2,2.2c0,1.2,1,2.2,2.2,2.2h11v35.1H97.9z M97.9,123.3"/>
</g>
</svg>
