<?xml version="1.0" encoding="utf-8"?>
<!-- Generator: Adobe Illustrator 18.1.0, SVG Export Plug-In . SVG Version: 6.00 Build 0)  -->
<svg version="1.1" id="Layer_1" xmlns="http://www.w3.org/2000/svg" xmlns:xlink="http://www.w3.org/1999/xlink" x="0px" y="0px"
	 viewBox="0 0 50 50" enable-background="new 0 0 50 50" xml:space="preserve">
<g>
	<path fill="#6D6D6D" d="M30.8,25.9c0-0.2-0.2-0.4-0.4-0.4h-5.8V14.8h3.4L15.6,6.4L3.3,14.8h3.2v11.5H18v-8.2h4.1v8.2h1.7v4.1
		c0,0.2,0.2,0.4,0.4,0.4c0.2,0,0.4-0.2,0.4-0.4v-4.1h5.8C30.6,26.4,30.8,26.2,30.8,25.9L30.8,25.9z M15.5,22.2h-4.9v-4.1h4.9V22.2z
		 M15.5,22.2"/>
	<path fill="#6D6D6D" d="M16,6.4l0.1,0.1c0,0,0.1,0,0.2,0h14c0.2,0,0.4-0.2,0.4-0.4c0-0.2-0.2-0.4-0.4-0.4h-14
		c-0.2,0-0.4,0.2-0.4,0.4c0,0,0,0,0,0C15.9,6.3,16,6.4,16,6.4L16,6.4z M16,6.4"/>
	<path fill="#6D6D6D" d="M31.2,9.9l-1.3-2.2l-1.3,2.2h0.8v12.4h-0.8l1.3,2.2l1.3-2.2h-0.8V9.9H31.2z M31.2,9.9"/>
	<path fill="#6D6D6D" d="M21.3,29.7H10.6v-0.8l-2.2,1.3l2.2,1.3v-0.8h10.7v0.8l2.2-1.3l-2.2-1.3V29.7z M21.3,29.7"/>
	<g>
		<defs>
			<rect id="SVGID_1_" x="3.3" y="5.7" width="43.4" height="42.1"/>
		</defs>
		<clipPath id="SVGID_2_">
			<use xlink:href="#SVGID_1_"  overflow="visible"/>
		</clipPath>
		<path clip-path="url(#SVGID_2_)" fill="#6D6D6D" d="M28.7,42.4l0.5,5.4l4.4-2.9L44,24.4l-4.9-2.5L28.7,42.4z M28.7,42.4"/>
		<path clip-path="url(#SVGID_2_)" fill="#6D6D6D" d="M45.3,17.6L45,17.5c-1.1-0.6-2.8-0.8-3.4,0.3l-1.2,2.3l4.9,2.5l1.2-2.3
			C47.1,19.2,46.4,18.2,45.3,17.6L45.3,17.6z M45.3,17.6"/>
	</g>
</g>
</svg>
