<?xml version="1.0" encoding="utf-8"?>
<!-- Generator: Adobe Illustrator 18.1.0, SVG Export Plug-In . SVG Version: 6.00 Build 0)  -->
<svg version="1.1" id="Layer_1" xmlns="http://www.w3.org/2000/svg" xmlns:xlink="http://www.w3.org/1999/xlink" x="0px" y="0px"
	 viewBox="0 0 30 30" enable-background="new 0 0 30 30" xml:space="preserve">
<g>
	<path fill="#FFFFFF" d="M15,0.3C7,0.3,0.5,6.8,0.5,14.8S7,29.3,15,29.3s14.5-6.5,14.5-14.5S23,0.3,15,0.3L15,0.3z M15.6,28
		C15.5,28,15.5,28,15.6,28l-0.1-5.6h4.6C19,25.4,17.4,27.5,15.6,28L15.6,28z M9.7,22.3h4.5v5.6h0C12.4,27.5,10.8,25.4,9.7,22.3
		L9.7,22.3z M1.8,15.4h5.6c0,2,0.3,4,0.7,5.7H3.4C2.5,19.4,1.9,17.5,1.8,15.4L1.8,15.4z M20.1,7.2h-4.6V1.6c0,0,0.1,0,0.1,0
		C17.4,2,19,4.2,20.1,7.2L20.1,7.2z M20.4,8.5c0.5,1.7,0.7,3.7,0.8,5.7h-5.8V8.5H20.4z M14.2,1.6L14.2,1.6l0,5.6H9.7
		C10.8,4.2,12.4,2.1,14.2,1.6L14.2,1.6z M14.2,8.5v5.7H8.6c0-2,0.3-4,0.8-5.7H14.2z M7.4,14.2H1.8c0.1-2.1,0.7-4,1.6-5.7h4.7
		C7.7,10.2,7.4,12.1,7.4,14.2L7.4,14.2z M8.6,15.4h5.6v5.7H9.4C8.9,19.4,8.6,17.4,8.6,15.4L8.6,15.4z M15.5,21.1v-5.7h5.8
		c0,2-0.3,4-0.8,5.7H15.5z M22.4,15.4h5.7c-0.1,2.1-0.7,4-1.6,5.7h-4.8C22.1,19.4,22.4,17.5,22.4,15.4L22.4,15.4z M22.4,14.2
		c0-2-0.3-4-0.7-5.7h4.8c0.9,1.7,1.5,3.6,1.6,5.7H22.4z M25.8,7.2h-4.4c-0.7-2.2-1.6-3.9-2.8-5.1C21.5,3,24.1,4.8,25.8,7.2L25.8,7.2
		z M11.2,2.2c-1.1,1.2-2.1,3-2.7,5.1H4.2C5.8,4.8,8.3,3,11.2,2.2L11.2,2.2z M4.2,22.3h4.3c0.7,2.1,1.6,3.9,2.7,5.1
		C8.3,26.5,5.8,24.7,4.2,22.3L4.2,22.3z M18.6,27.5c1.1-1.2,2.1-3,2.8-5.1h4.4C24.1,24.8,21.5,26.6,18.6,27.5L18.6,27.5z M18.6,27.5
		"/>
</g>
</svg>
