<?xml version="1.0" encoding="utf-8"?>
<!-- Generator: Adobe Illustrator 18.1.0, SVG Export Plug-In . SVG Version: 6.00 Build 0)  -->
<svg version="1.1" id="Layer_1" xmlns="http://www.w3.org/2000/svg" xmlns:xlink="http://www.w3.org/1999/xlink" x="0px" y="0px"
	 viewBox="0 0 150 150" enable-background="new 0 0 150 150" xml:space="preserve">
<g>
	<g>
		<defs>
			<rect id="SVGID_1_" x="4.2" y="4.6" width="141.6" height="139.6"/>
		</defs>
		<clipPath id="SVGID_2_">
			<use xlink:href="#SVGID_1_"  overflow="visible"/>
		</clipPath>
		<path clip-path="url(#SVGID_2_)" fill="#6D6D6D" d="M145.7,65.3l-9.4-30.7c-0.3-1-1.2-1.7-2.3-1.7H87.8L60.2,5.4
			c-0.9-0.9-2.4-0.9-3.3,0L29.2,33H16c-1,0-1.9,0.7-2.3,1.7L4.3,65.3c-0.2,0.7-0.1,1.5,0.4,2.1c0.4,0.6,1.1,1,1.9,1h7.1v73.1
			c0,1.3,1.1,2.4,2.4,2.4H134c1.3,0,2.4-1.1,2.4-2.4V68.4h7.1c0.7,0,1.5-0.4,1.9-1C145.8,66.8,145.9,66.1,145.7,65.3L145.7,65.3z
			 M27.8,139.2h-9.4V68.4h9.4V139.2z M27.8,63.7h-18l8-25.9h10.1V63.7z M67.9,139.2H49.1v-37.7h18.9V139.2z M84.4,66v73.1H72.7V99.1
			c0-1.3-1.1-2.4-2.4-2.4H46.7c-1.3,0-2.4,1.1-2.4,2.4v40.1H32.5V36.4l25.9-25.9l25.9,25.9V66z M131.6,139.2H89.2V68.4h42.5V139.2z
			 M134,63.7H89.2V37.7h43.1l8,25.9H134z M134,63.7"/>
	</g>
	<path fill="#6D6D6D" d="M126.9,80.2h-11.8c-1.3,0-2.4,1.1-2.4,2.4v40.1c0,1.3,1.1,2.4,2.4,2.4h11.8c1.3,0,2.4-1.1,2.4-2.4V82.6
		C129.3,81.3,128.2,80.2,126.9,80.2L126.9,80.2z M124.5,120.3h-7.1V84.9h7.1V120.3z M124.5,120.3"/>
	<path fill="#6D6D6D" d="M105.7,80.2H93.9c-1.3,0-2.4,1.1-2.4,2.4v40.1c0,1.3,1.1,2.4,2.4,2.4h11.8c1.3,0,2.4-1.1,2.4-2.4V82.6
		C108,81.3,107,80.2,105.7,80.2L105.7,80.2z M103.3,120.3h-7.1V84.9h7.1V120.3z M103.3,120.3"/>
	<path fill="#6D6D6D" d="M70.3,35.4H46.7c-1.3,0-2.4,1.1-2.4,2.4v25.9c0,1.3,1.1,2.4,2.4,2.4h23.6c1.3,0,2.4-1.1,2.4-2.4V37.7
		C72.7,36.4,71.6,35.4,70.3,35.4L70.3,35.4z M67.9,61.3H49.1V40.1h18.9V61.3z M67.9,61.3"/>
</g>
</svg>
