<?xml version="1.0" encoding="utf-8"?>
<!-- Generator: Adobe Illustrator 18.1.0, SVG Export Plug-In . SVG Version: 6.00 Build 0)  -->
<svg version="1.1" id="Layer_1" xmlns="http://www.w3.org/2000/svg" xmlns:xlink="http://www.w3.org/1999/xlink" x="0px" y="0px"
	 viewBox="0 0 150 150" enable-background="new 0 0 150 150" xml:space="preserve">
<g>
	<path fill="#6D6D6D" d="M14,75c0-33.6,27.3-61,61-61c18.9,0,36.5,8.9,48,24h-13.2c-1.2,0-2.2,1-2.2,2.2c0,1.2,1,2.2,2.2,2.2h17.4
		c0.1,0,0.1,0,0.2,0c0.1,0,0.3,0,0.4-0.1c0.1,0,0.3-0.1,0.4-0.2c0.1,0,0.1,0,0.2-0.1c0.1,0,0.1-0.1,0.1-0.1c0.1-0.1,0.2-0.2,0.3-0.3
		c0.1-0.1,0.2-0.2,0.2-0.3c0.1-0.1,0.1-0.2,0.2-0.4c0-0.1,0.1-0.3,0.1-0.4c0-0.1,0-0.1,0-0.2V22.7c0-1.2-1-2.2-2.2-2.2
		c-1.2,0-2.2,1-2.2,2.2v10.8C112.8,18.5,94.5,9.7,75,9.7C39,9.7,9.7,39,9.7,75c0,6.9,1.1,13.7,3.2,20.3c0.3,0.9,1.2,1.5,2.1,1.5
		c0.2,0,0.4,0,0.7-0.1c1.1-0.4,1.8-1.6,1.4-2.7C15,87.8,14,81.5,14,75L14,75z M14,75"/>
	<path fill="#6D6D6D" d="M137,54.4c-0.4-1.1-1.6-1.8-2.8-1.4c-1.1,0.4-1.8,1.6-1.4,2.8c2.1,6.2,3.1,12.7,3.1,19.3
		c0,33.6-27.3,61-61,61c-18.9,0-36.5-8.9-48-24h13.2c1.2,0,2.2-1,2.2-2.2c0-1.2-1-2.2-2.2-2.2H22.7c-0.1,0-0.1,0-0.2,0
		c-0.1,0-0.3,0-0.4,0.1c-0.1,0-0.3,0.1-0.4,0.2c-0.1,0-0.1,0-0.2,0.1c-0.1,0-0.1,0.1-0.1,0.1c-0.1,0.1-0.2,0.2-0.3,0.3
		c-0.1,0.1-0.2,0.2-0.2,0.3c-0.1,0.1-0.1,0.2-0.2,0.4c0,0.1-0.1,0.3-0.1,0.4c0,0.1,0,0.1,0,0.2v17.4c0,1.2,1,2.2,2.2,2.2
		c1.2,0,2.2-1,2.2-2.2v-10.9c12.3,15.1,30.6,23.9,50.1,23.9c36,0,65.3-29.3,65.3-65.3C140.3,67.9,139.2,61,137,54.4L137,54.4z
		 M137,54.4"/>
	<path fill="#6D6D6D" d="M81.7,95.4C81.7,95.5,81.7,95.5,81.7,95.4c0.2,0.3,0.3,0.5,0.5,0.7c0.2,0.2,0.4,0.3,0.6,0.4
		c0.1,0,0.1,0.1,0.1,0.1c0.3,0.1,0.6,0.2,0.8,0.2c0,0,0,0,0,0h10.8l0.5,0c1.9,0,11.8-0.3,18.6-7.2c7.6-7.6,7.2-18.6,7.2-19V59.8
		c0-1.2-1-2.2-2.2-2.2l-10.8,0l-0.5,0c-1.9,0-11.8,0.3-18.6,7.2c-7.6,7.6-7.2,18.6-7.2,19v10.9C81.5,94.9,81.6,95.2,81.7,95.4
		L81.7,95.4z M91.8,67.8c5.6-5.6,13.9-5.9,15.5-5.9l9.1,0l0,8.8c0,0.1,0.3,9.6-5.9,15.8c-5.6,5.6-13.9,5.9-15.5,5.9l-6,0L111.4,70
		c0.9-0.8,0.9-2.2,0-3.1c-0.9-0.8-2.2-0.8-3.1,0L85.9,89.3l0-5.7C85.9,83.5,85.6,74,91.8,67.8L91.8,67.8z M91.8,67.8"/>
	<path fill="#6D6D6D" d="M70,47.3c-6.6-6.6-15.9-7.2-18.6-7.2l-11.3,0c-1.2,0-2.2,1-2.2,2.2l0,10.8c0,0.5-0.4,11.5,7.2,19
		c6.8,6.8,16.7,7.2,18.6,7.2l9.1,0v41.4c0,1.2,1,2.2,2.2,2.2c1.2,0,2.2-1,2.2-2.2V77.2c0,0,0,0,0,0v0l0-10.8
		C77.2,65.9,77.5,54.9,70,47.3L70,47.3z M72.8,66.3v5.6L50.4,49.5c-0.9-0.9-2.2-0.9-3.1,0c-0.9,0.8-0.9,2.2,0,3.1L69.8,75l-6,0
		c-1.6,0-9.9-0.3-15.5-5.9c-6.2-6.2-5.9-15.7-5.9-15.9v-8.7l9.1,0c1.6,0,9.9,0.3,15.5,5.9C73.1,56.6,72.8,66.1,72.8,66.3L72.8,66.3z
		 M72.8,66.3"/>
</g>
</svg>
