<?xml version="1.0" encoding="utf-8"?>
<!-- Generator: Adobe Illustrator 18.1.0, SVG Export Plug-In . SVG Version: 6.00 Build 0)  -->
<svg version="1.1" id="Layer_1" xmlns="http://www.w3.org/2000/svg" xmlns:xlink="http://www.w3.org/1999/xlink" x="0px" y="0px"
	 viewBox="0 0 30 41.2" enable-background="new 0 0 30 41.2" xml:space="preserve">
<g>
	<path fill="#FFFFFF" d="M15,22.3c-3.9,0-7-3.1-7-7c0-3.9,3.1-7,7-7c3.9,0,7,3.1,7,7C22,19.2,18.9,22.3,15,22.3L15,22.3z M15,10
		c-2.9,0-5.3,2.4-5.3,5.3c0,2.9,2.4,5.3,5.3,5.3c2.9,0,5.3-2.4,5.3-5.3C20.3,12.4,17.9,10,15,10L15,10z M15,10"/>
	<path fill="#FFFFFF" d="M15,40.5c-0.2,0-0.5-0.1-0.6-0.3c-0.6-0.7-14.2-17-14.2-24.9C0.2,7.2,6.8,0.5,15,0.5
		c8.2,0,14.8,6.6,14.8,14.8c0,7.9-13.6,24.2-14.2,24.9C15.5,40.4,15.2,40.5,15,40.5L15,40.5z M15,2.2C7.8,2.2,1.9,8.1,1.9,15.3
		C1.9,21.7,12.3,35,15,38.4c2.7-3.3,13.1-16.7,13.1-23.1C28.1,8.1,22.2,2.2,15,2.2L15,2.2z M15,2.2"/>
</g>
</svg>
