<?xml version="1.0" encoding="utf-8"?>
<!-- Generator: Adobe Illustrator 18.1.0, SVG Export Plug-In . SVG Version: 6.00 Build 0)  -->
<svg version="1.1" id="Layer_1" xmlns="http://www.w3.org/2000/svg" xmlns:xlink="http://www.w3.org/1999/xlink" x="0px" y="0px"
	 viewBox="0 0 30 30" enable-background="new 0 0 30 30" xml:space="preserve">
<g>
	<path fill="#FFFFFF" d="M27.3,4.1H2.9c-1.2,0-2.2,1-2.2,2.2v17.2c0,1.2,1,2.2,2.2,2.2h24.4c1.2,0,2.2-1,2.2-2.2V6.3
		C29.5,5.1,28.5,4.1,27.3,4.1L27.3,4.1z M27,5.7l-11.7,10L3.5,5.7H27z M27.9,23.5c0,0.3-0.3,0.6-0.6,0.6H2.9c-0.3,0-0.6-0.3-0.6-0.6
		V6.9l12.4,10.6c0,0,0,0,0,0c0,0,0,0,0,0c0,0,0,0,0,0c0,0,0,0,0,0l0.1,0c0,0,0,0,0,0c0,0,0,0,0.1,0c0,0,0,0,0,0c0,0,0,0,0.1,0
		c0,0,0,0,0,0c0,0,0,0,0.1,0h0c0,0,0.1,0,0.1,0c0,0,0.1,0,0.1,0h0c0,0,0,0,0.1,0c0,0,0,0,0,0c0,0,0,0,0.1,0c0,0,0,0,0,0
		c0,0,0,0,0.1,0c0,0,0,0,0,0l0.1,0c0,0,0,0,0,0c0,0,0,0,0,0c0,0,0,0,0,0c0,0,0,0,0,0L27.9,7.1V23.5z M27.9,23.5"/>
</g>
</svg>
