<?xml version="1.0" encoding="utf-8"?>
<!-- Generator: Adobe Illustrator 18.1.0, SVG Export Plug-In . SVG Version: 6.00 Build 0)  -->
<svg version="1.1" id="Layer_1" xmlns="http://www.w3.org/2000/svg" xmlns:xlink="http://www.w3.org/1999/xlink" x="0px" y="0px"
	 viewBox="0 0 456.8 182.4" enable-background="new 0 0 456.8 182.4" xml:space="preserve">
<g>
	<polygon fill="#525E66" points="22.5,139.2 15,119.3 18.2,118.4 22.8,130.8 24.1,135.2 25.4,130.8 30.1,118.4 33.2,119.3 
		25.8,139.2 22.5,139.2 	"/>
	<path fill="#525E66" d="M51.2,118.4c1.3,0,2.5,0.3,3.8,0.8c1.2,0.5,2.3,1.2,3.1,2.2l-2.1,2.1c-0.5-0.5-1.1-0.9-1.8-1.4
		c-0.8-0.4-1.8-0.6-3-0.6c-0.4,0-0.9,0-1.4,0.1c-0.5,0.1-1,0.2-1.4,0.4c-0.4,0.2-0.8,0.5-1.1,0.9c-0.3,0.4-0.4,0.9-0.4,1.5
		c0,0.7,0.3,1.2,0.9,1.6c0.6,0.4,1.4,0.7,2.3,1c0.9,0.3,1.9,0.6,3,0.8c1.1,0.3,2,0.6,3,1c0.9,0.4,1.7,1,2.3,1.7
		c0.6,0.7,0.9,1.6,0.9,2.7c0,2.1-0.7,3.8-2.1,5c-1.4,1.2-3.4,1.8-6.1,1.8c-2,0-3.7-0.3-5.1-1s-2.5-1.8-3.3-3.3l2.5-1.6
		c0.4,0.4,0.7,0.8,1.1,1.1c0.4,0.3,0.8,0.7,1.3,0.9c0.5,0.3,1,0.5,1.6,0.6c0.6,0.1,1.3,0.2,2.2,0.2c0.4,0,0.9,0,1.4-0.1
		c0.5-0.1,1-0.2,1.5-0.5c0.4-0.2,0.8-0.6,1.1-1c0.3-0.4,0.4-1,0.4-1.7c0-0.8-0.3-1.4-0.9-1.8c-0.6-0.4-1.4-0.7-2.3-1
		c-0.9-0.3-1.9-0.5-2.9-0.7c-1.1-0.2-2-0.5-2.9-1c-0.9-0.4-1.7-1-2.3-1.8c-0.6-0.8-0.9-1.8-0.9-3.2c0-1.1,0.3-1.9,0.8-2.6
		c0.5-0.7,1.2-1.3,1.9-1.7c0.8-0.4,1.6-0.8,2.5-1C49.4,118.5,50.3,118.4,51.2,118.4L51.2,118.4z"/>
	<path fill="#525E66" d="M72.8,129.9c0,2.4,0.5,4.1,1.6,5.2c1.1,1.1,2.7,1.6,5,1.6c1.1,0,2-0.2,2.8-0.7c0.8-0.4,1.4-1.1,2-1.8
		l3.1,1.3c-0.8,1.3-1.9,2.4-3.3,3.1c-1.4,0.8-3,1.1-4.8,1.1c-1.8,0-3.3-0.3-4.6-0.7c-1.3-0.5-2.3-1.2-3.1-2.1
		c-0.8-0.9-1.3-2-1.7-3.3c-0.4-1.3-0.5-2.7-0.5-4.3v-0.4c0-0.7,0-1.3,0-2c0-0.6,0.1-1.3,0.2-1.9c0.1-0.6,0.4-1.2,0.6-1.8
		c0.3-0.6,0.7-1.2,1.3-1.8c0.9-1,2-1.8,3.3-2.3c1.3-0.5,2.6-0.7,3.9-0.7c1.5,0,2.9,0.2,4,0.7c1.2,0.5,2.2,1.2,3,2
		c0.8,0.9,1.4,1.9,1.8,3.1c0.4,1.2,0.6,2.5,0.6,3.9v1.8H72.8L72.8,129.9z M72.8,127.1h11.8v-0.4c0-0.7-0.1-1.3-0.4-2
		c-0.3-0.6-0.7-1.2-1.2-1.7c-0.5-0.5-1.1-0.9-1.9-1.2c-0.7-0.3-1.6-0.5-2.5-0.5c-0.9,0-1.7,0.1-2.4,0.4c-0.7,0.3-1.4,0.7-1.9,1.2
		c-0.5,0.5-0.9,1.1-1.2,1.7c-0.3,0.6-0.4,1.3-0.4,2V127.1L72.8,127.1z"/>
	<polygon fill="#525E66" points="104.9,139.2 97.4,119.3 100.5,118.4 105.2,130.8 106.5,135.2 107.8,130.8 112.5,118.4 115.6,119.3 
		108.1,139.2 104.9,139.2 	"/>
	<path fill="#525E66" d="M141.1,129.1v-0.8c0-2-0.5-3.6-1.5-4.8c-0.5-0.6-1.2-1.2-2-1.5c-0.8-0.4-1.7-0.5-2.8-0.5
		c-1,0-1.9,0.2-2.7,0.5c-0.8,0.3-1.4,0.8-2,1.4c-1.1,1.2-1.6,2.9-1.6,5v0.9c0,1.1,0.1,2.2,0.4,3.2c0.2,1,0.7,1.8,1.3,2.5
		c0.5,0.6,1.1,1.1,1.9,1.4c0.8,0.3,1.7,0.5,2.8,0.5c1,0,1.9-0.1,2.6-0.4c0.7-0.3,1.3-0.7,1.9-1.3c0.7-0.7,1.2-1.6,1.5-2.6
		C140.9,131.4,141.1,130.2,141.1,129.1L141.1,129.1z M141.7,136.8c-0.9,1-2,1.7-3.2,2.2c-1.2,0.5-2.5,0.7-3.8,0.7
		c-1.3,0-2.6-0.2-3.8-0.7c-1.2-0.5-2.3-1.2-3.2-2.2c-1-1-1.7-2.2-2-3.6c-0.3-1.3-0.5-2.8-0.5-4.2v-0.8c0-1.4,0.2-2.7,0.5-3.8
		c0.3-1.1,1-2.2,2.1-3.3c0.9-1,2-1.7,3.2-2.1c1.2-0.5,2.4-0.7,3.8-0.7c1.3,0,2.6,0.2,3.7,0.7c1.1,0.4,2.2,1.1,3.1,2.1
		c1,1,1.7,2.1,2.1,3.2c0.4,1.2,0.6,2.4,0.6,3.8v0.8c0,1.5-0.2,2.8-0.5,4.1C143.5,134.5,142.8,135.7,141.7,136.8L141.7,136.8z"/>
	<path fill="#525E66" d="M155.4,111.6l3.5-1v23.7c0,1.6,0.8,2.4,2.5,2.4h2.1v2.5c-0.5,0.2-1,0.3-1.5,0.4c-0.5,0.1-1,0.1-1.4,0.1
		c-0.7,0-1.4-0.1-2-0.4c-0.6-0.3-1.2-0.7-1.7-1.2c-0.5-0.5-0.8-1.1-1.1-1.7c-0.3-0.7-0.4-1.4-0.4-2.2V111.6L155.4,111.6z"/>
	<path fill="#525E66" d="M188.2,129.1v-0.8c0-2-0.5-3.6-1.5-4.8c-0.5-0.6-1.2-1.2-2-1.5c-0.8-0.4-1.7-0.5-2.8-0.5
		c-1,0-1.9,0.2-2.7,0.5c-0.8,0.3-1.4,0.8-2,1.4c-1.1,1.2-1.6,2.9-1.6,5v0.9c0,1.1,0.1,2.2,0.4,3.2c0.2,1,0.7,1.8,1.3,2.5
		c0.5,0.6,1.1,1.1,1.9,1.4c0.8,0.3,1.7,0.5,2.8,0.5c1,0,1.9-0.1,2.6-0.4c0.7-0.3,1.3-0.7,1.9-1.3c0.7-0.7,1.2-1.6,1.5-2.6
		C188.1,131.4,188.2,130.2,188.2,129.1L188.2,129.1z M188.9,136.8c-0.9,1-2,1.7-3.2,2.2c-1.2,0.5-2.5,0.7-3.8,0.7
		c-1.3,0-2.6-0.2-3.8-0.7c-1.2-0.5-2.3-1.2-3.2-2.2c-1-1-1.7-2.2-2-3.6c-0.3-1.3-0.5-2.8-0.5-4.2v-0.8c0-1.4,0.2-2.7,0.5-3.8
		c0.3-1.1,1-2.2,2.1-3.3c0.9-1,2-1.7,3.2-2.1c1.2-0.5,2.4-0.7,3.8-0.7c1.3,0,2.6,0.2,3.7,0.7c1.1,0.4,2.2,1.1,3.1,2.1
		c1,1,1.7,2.1,2.1,3.2c0.4,1.2,0.6,2.4,0.6,3.8v0.8c0,1.5-0.2,2.8-0.5,4.1C190.7,134.5,190,135.7,188.9,136.8L188.9,136.8z"/>
	<path fill="#525E66" d="M214.9,122.3c-0.5-0.3-1.1-0.5-1.9-0.7c-0.8-0.2-1.5-0.2-2.3-0.2c-2,0-3.6,0.6-4.7,1.9
		c-1.1,1.3-1.7,3-1.7,5.2v2.4c0,0.8,0.1,1.5,0.2,2.2c0.2,0.7,0.4,1.3,0.8,1.9c0.4,0.6,0.9,1,1.4,1.3c0.6,0.3,1.3,0.5,2.2,0.5
		c0.8,0,1.7-0.3,2.8-0.7c1.1-0.5,2.1-1.3,3.2-2.5V122.3L214.9,122.3z M214.9,111.6l3.5-1v23.9c0,1,0.1,1.8,0.3,2.5
		c0.2,0.7,0.5,1.4,0.9,2.2h-3.7c-0.2-0.3-0.4-0.6-0.5-1.1c-0.1-0.5-0.2-0.9-0.2-1.3c-0.5,0.5-1.1,1-1.8,1.5c-0.5,0.4-1.2,0.7-1.9,1
		c-0.8,0.3-1.6,0.4-2.4,0.4c-1.5,0-2.7-0.2-3.7-0.7c-1-0.5-1.9-1.1-2.5-2c-0.7-0.8-1.1-1.8-1.4-2.9c-0.3-1.1-0.4-2.3-0.4-3.5v-1.9
		c0-3.5,0.8-6,2.5-7.7c1.7-1.7,4.2-2.6,7.6-2.6c1.3,0,2.6,0.3,3.9,0.8V111.6L214.9,111.6z"/>
	<path fill="#525E66" d="M257.2,118.9c1.1,0,2.2,0.2,3.1,0.6c0.9,0.4,1.7,0.9,2.3,1.6c0.6,0.7,1.1,1.5,1.5,2.4
		c0.4,0.9,0.5,1.9,0.5,3v12.7h-3.5v-13.2c0-1.3-0.4-2.3-1.1-3.1c-0.7-0.8-1.7-1.2-3-1.2c-1.6,0-2.9,0.4-3.8,1.2
		c-0.9,0.8-1.5,1.9-1.8,3.1v13.1h-3.5v-27.6l3.5-1v10.7c0.8-1,1.8-1.7,2.8-2C255.2,119,256.2,118.9,257.2,118.9L257.2,118.9z"/>
	<path fill="#525E66" d="M291.1,129.1v-0.8c0-2-0.5-3.6-1.5-4.8c-0.5-0.6-1.2-1.2-2-1.5c-0.8-0.4-1.7-0.5-2.8-0.5
		c-1,0-1.9,0.2-2.7,0.5c-0.8,0.3-1.4,0.8-2,1.4c-1.1,1.2-1.6,2.9-1.6,5v0.9c0,1.1,0.1,2.2,0.4,3.2c0.2,1,0.7,1.8,1.3,2.5
		c0.5,0.6,1.1,1.1,1.9,1.4c0.8,0.3,1.7,0.5,2.8,0.5c1,0,1.9-0.1,2.6-0.4c0.7-0.3,1.3-0.7,1.9-1.3c0.7-0.7,1.2-1.6,1.5-2.6
		C291,131.4,291.1,130.2,291.1,129.1L291.1,129.1z M291.7,136.8c-0.9,1-2,1.7-3.2,2.2c-1.2,0.5-2.5,0.7-3.8,0.7
		c-1.3,0-2.6-0.2-3.8-0.7c-1.2-0.5-2.3-1.2-3.2-2.2c-1-1-1.7-2.2-2-3.6c-0.3-1.3-0.5-2.8-0.5-4.2v-0.8c0-1.4,0.2-2.7,0.5-3.8
		c0.3-1.1,1-2.2,2.1-3.3c0.9-1,2-1.7,3.2-2.1c1.2-0.5,2.4-0.7,3.8-0.7c1.3,0,2.6,0.2,3.7,0.7c1.1,0.4,2.2,1.1,3.1,2.1
		c1,1,1.7,2.1,2.1,3.2c0.4,1.2,0.6,2.4,0.6,3.8v0.8c0,1.5-0.2,2.8-0.5,4.1C293.5,134.5,292.8,135.7,291.7,136.8L291.7,136.8z"/>
	<polygon fill="#525E66" points="311.4,139.2 303.9,119.3 307,118.4 311.7,130.8 313,135.2 314.3,130.8 319,118.4 322.1,119.3 
		314.6,139.2 311.4,139.2 	"/>
	<path fill="#525E66" d="M336.1,120.9c0.5-0.8,1.1-1.4,1.8-1.9c0.7-0.4,1.5-0.7,2.5-0.7c1.1,0,2.2,0.3,3.4,0.9l-1.2,3.2
		c-0.8-0.4-1.6-0.6-2.3-0.6c-0.7,0-1.3,0.2-1.8,0.5c-0.5,0.4-1,0.9-1.3,1.5c-0.3,0.6-0.6,1.4-0.7,2.2c-0.2,0.8-0.2,1.8-0.2,2.7v10.4
		h-3.5v-15.4c0-1.4-0.3-2.8-0.9-4l3.2-1.5c0.2,0.4,0.4,0.8,0.6,1.2c0.2,0.4,0.3,0.9,0.4,1.4H336.1L336.1,120.9z"/>
	<path fill="#525E66" d="M359.5,136.7c0.5,0,1-0.1,1.7-0.3c0.6-0.2,1.3-0.5,1.9-0.8c0.7-0.3,1.3-0.6,1.9-0.9
		c0.6-0.3,1.1-0.6,1.6-0.8v-3.5h-7.5c-0.4,0-0.8,0.1-1.2,0.3c-0.4,0.2-0.7,0.4-1,0.7c-0.3,0.3-0.5,0.6-0.6,1
		c-0.2,0.4-0.2,0.8-0.2,1.2c0,0.5,0.1,0.9,0.3,1.3c0.2,0.4,0.5,0.7,0.8,1c0.3,0.3,0.7,0.5,1.1,0.7
		C358.7,136.7,359.1,136.7,359.5,136.7L359.5,136.7z M361.9,118.4c1.1,0,2.2,0.2,3.2,0.5c1,0.3,1.8,0.8,2.6,1.4
		c0.7,0.6,1.3,1.4,1.8,2.3c0.4,0.9,0.6,2,0.6,3.2v8.8c0,0.9,0.1,1.8,0.3,2.4c0.2,0.7,0.5,1.4,0.9,2.2h-3.7c-0.2-0.3-0.4-0.7-0.5-1.1
		c-0.1-0.5-0.2-0.9-0.2-1.3c-1.1,0.8-2.3,1.5-3.7,2c-1.3,0.6-2.7,0.8-4.1,0.8c-0.9,0-1.8-0.1-2.6-0.4c-0.8-0.3-1.5-0.7-2.1-1.3
		c-0.6-0.6-1.1-1.2-1.4-2c-0.3-0.8-0.5-1.6-0.5-2.6c0-0.9,0.2-1.7,0.5-2.5c0.4-0.7,0.8-1.4,1.4-1.9c0.6-0.5,1.3-1,2.1-1.3
		s1.6-0.4,2.5-0.4h7.6v-1.8c0-1.4-0.4-2.5-1.3-3.1c-0.9-0.7-2-1-3.4-1c-1.2,0-2.3,0.1-3.2,0.4c-0.9,0.3-1.9,0.8-2.9,1.4l-1.5-2.6
		c0.6-0.4,1.3-0.7,1.8-1c0.6-0.3,1.2-0.5,1.8-0.7c0.6-0.2,1.2-0.3,1.9-0.4C360.5,118.4,361.2,118.4,361.9,118.4L361.9,118.4z"/>
	<path fill="#525E66" d="M382.9,121.6h-2.3v-2.7h2.3v-4.4l3.5-1v5.3h3.7l-0.8,2.7h-2.9v12.7c0,1.6,0.8,2.4,2.5,2.4h1.5v2.5
		c-0.5,0.2-0.9,0.3-1.2,0.3c-0.3,0.1-0.7,0.1-1.1,0.1c-0.7,0-1.4-0.1-2-0.4c-0.6-0.3-1.2-0.6-1.7-1.1c-0.5-0.5-0.8-1.1-1.1-1.7
		c-0.3-0.7-0.4-1.4-0.4-2.2V121.6L382.9,121.6z"/>
	<path fill="#525E66" d="M415.7,129.1v-0.8c0-2-0.5-3.6-1.5-4.8c-0.5-0.6-1.2-1.2-2-1.5c-0.8-0.4-1.7-0.5-2.8-0.5
		c-1,0-1.9,0.2-2.7,0.5c-0.8,0.3-1.4,0.8-2,1.4c-1.1,1.2-1.6,2.9-1.6,5v0.9c0,1.1,0.1,2.2,0.4,3.2c0.2,1,0.7,1.8,1.3,2.5
		c0.5,0.6,1.1,1.1,1.9,1.4c0.8,0.3,1.7,0.5,2.8,0.5c1,0,1.9-0.1,2.6-0.4c0.7-0.3,1.3-0.7,1.9-1.3c0.7-0.7,1.2-1.6,1.5-2.6
		C415.6,131.4,415.7,130.2,415.7,129.1L415.7,129.1z M416.4,136.8c-0.9,1-2,1.7-3.2,2.2c-1.2,0.5-2.5,0.7-3.8,0.7
		c-1.3,0-2.6-0.2-3.8-0.7c-1.2-0.5-2.3-1.2-3.2-2.2c-1-1-1.7-2.2-2-3.6c-0.3-1.3-0.5-2.8-0.5-4.2v-0.8c0-1.4,0.2-2.7,0.5-3.8
		c0.3-1.1,1-2.2,2.1-3.3c0.9-1,2-1.7,3.2-2.1c1.2-0.5,2.4-0.7,3.8-0.7c1.3,0,2.6,0.2,3.7,0.7c1.1,0.4,2.2,1.1,3.1,2.1
		c1,1,1.7,2.1,2.1,3.2c0.4,1.2,0.6,2.4,0.6,3.8v0.8c0,1.5-0.2,2.8-0.5,4.1C418.2,134.5,417.5,135.7,416.4,136.8L416.4,136.8z"/>
	<polygon fill="#525E66" points="436,139.2 428.5,119.3 431.6,118.4 436.3,130.8 437.6,135.2 438.9,130.8 443.6,118.4 446.7,119.3 
		439.2,139.2 436,139.2 	"/>
	<path fill="#525E66" d="M113,167.3c0.3,0,0.5-0.1,0.9-0.2c0.3-0.1,0.7-0.2,1-0.4c0.3-0.2,0.7-0.3,1-0.5c0.3-0.2,0.6-0.3,0.8-0.4
		V164h-3.9c-0.2,0-0.4,0-0.6,0.1c-0.2,0.1-0.4,0.2-0.5,0.4c-0.1,0.1-0.2,0.3-0.3,0.5c-0.1,0.2-0.1,0.4-0.1,0.6
		c0,0.3,0.1,0.5,0.2,0.7c0.1,0.2,0.2,0.4,0.4,0.5c0.2,0.1,0.4,0.3,0.6,0.3C112.6,167.2,112.8,167.3,113,167.3L113,167.3z
		 M114.3,157.8c0.6,0,1.1,0.1,1.6,0.3c0.5,0.2,1,0.4,1.3,0.7c0.4,0.3,0.7,0.7,0.9,1.2c0.2,0.5,0.3,1,0.3,1.7v4.6
		c0,0.5,0,0.9,0.1,1.3c0.1,0.3,0.2,0.7,0.5,1.2h-1.9c-0.1-0.2-0.2-0.3-0.3-0.6c-0.1-0.2-0.1-0.5-0.1-0.6c-0.6,0.4-1.2,0.8-1.9,1.1
		c-0.7,0.3-1.4,0.4-2.1,0.4c-0.5,0-0.9-0.1-1.3-0.2c-0.4-0.2-0.8-0.4-1.1-0.7c-0.3-0.3-0.5-0.6-0.7-1c-0.2-0.4-0.3-0.8-0.3-1.3
		c0-0.5,0.1-0.9,0.3-1.3c0.2-0.4,0.4-0.7,0.7-1c0.3-0.3,0.7-0.5,1.1-0.7c0.4-0.2,0.8-0.2,1.3-0.2h3.9v-0.9c0-0.7-0.2-1.3-0.7-1.6
		c-0.5-0.3-1-0.5-1.7-0.5c-0.6,0-1.2,0.1-1.7,0.2c-0.5,0.2-1,0.4-1.5,0.7l-0.8-1.3c0.3-0.2,0.7-0.4,1-0.5c0.3-0.1,0.6-0.3,0.9-0.4
		c0.3-0.1,0.6-0.2,1-0.2C113.5,157.8,113.9,157.8,114.3,157.8L114.3,157.8z"/>
	<path fill="#525E66" d="M135.6,159.1c0.3-0.4,0.6-0.7,0.9-1c0.4-0.2,0.8-0.3,1.3-0.3c0.5,0,1.1,0.2,1.7,0.5l-0.6,1.7
		c-0.4-0.2-0.8-0.3-1.2-0.3c-0.4,0-0.7,0.1-1,0.3c-0.3,0.2-0.5,0.4-0.7,0.8c-0.2,0.3-0.3,0.7-0.4,1.1c-0.1,0.4-0.1,0.9-0.1,1.4v5.4
		h-1.8v-8c0-0.7-0.2-1.4-0.5-2.1l1.7-0.8c0.1,0.2,0.2,0.4,0.3,0.6c0.1,0.2,0.2,0.4,0.2,0.7H135.6L135.6,159.1z"/>
	<path fill="#525E66" d="M158,157.8c0.6,0,1.2,0.1,1.9,0.3c0.6,0.2,1.1,0.6,1.6,1l-1.1,1.1c-0.3-0.3-0.6-0.5-1-0.6
		c-0.4-0.2-0.8-0.2-1.4-0.2c-0.5,0-0.9,0.1-1.3,0.2c-0.4,0.2-0.8,0.4-1,0.7c-0.3,0.3-0.5,0.7-0.7,1.2c-0.2,0.5-0.2,1-0.2,1.4v0.3
		c0,0.6,0.1,1.2,0.3,1.8c0.2,0.6,0.4,1,0.8,1.4c0.3,0.3,0.6,0.5,0.9,0.6c0.4,0.1,0.8,0.2,1.3,0.2c0.4,0,0.9-0.1,1.3-0.2
		c0.5-0.1,0.8-0.4,1.1-0.7l1.1,1.1c-0.5,0.5-1,0.8-1.6,1.1c-0.6,0.2-1.3,0.3-1.9,0.3c-0.6,0-1.1-0.1-1.7-0.3
		c-0.6-0.2-1.1-0.4-1.6-0.8c-0.4-0.3-0.7-0.7-0.9-1.1c-0.2-0.4-0.4-0.9-0.5-1.4c-0.1-0.3-0.1-0.7-0.1-1c0-0.3,0-0.7,0-1v-0.4
		c0-0.3,0-0.7,0-1s0.1-0.6,0.1-0.9c0.1-0.3,0.2-0.6,0.3-0.9c0.1-0.3,0.4-0.6,0.6-0.9c0.2-0.3,0.5-0.5,0.8-0.7c0.3-0.2,0.6-0.4,1-0.5
		c0.3-0.1,0.7-0.2,1.1-0.3C157.3,157.8,157.7,157.8,158,157.8L158,157.8z"/>
	<path fill="#525E66" d="M180.9,158c0.6,0,1.1,0.1,1.6,0.3c0.5,0.2,0.9,0.5,1.2,0.8c0.3,0.4,0.6,0.8,0.8,1.3c0.2,0.5,0.3,1,0.3,1.6
		v6.6h-1.8v-6.8c0-0.7-0.2-1.2-0.5-1.6c-0.4-0.4-0.9-0.6-1.5-0.6c-0.9,0-1.5,0.2-2,0.6c-0.5,0.4-0.8,1-1,1.6v6.8h-1.8v-14.3l1.8-0.5
		v5.6c0.4-0.5,0.9-0.9,1.4-1C179.9,158.1,180.4,158,180.9,158L180.9,158z"/>
	<path fill="#525E66" d="M199,168.6V158h1.8v10.6H199L199,168.6z M199.9,153.8c0.3,0,0.5,0.1,0.7,0.3c0.2,0.2,0.3,0.4,0.3,0.7
		c0,0.3-0.1,0.5-0.3,0.7c-0.2,0.2-0.4,0.3-0.7,0.3c-0.3,0-0.5-0.1-0.7-0.3c-0.2-0.2-0.3-0.4-0.3-0.7c0-0.3,0.1-0.5,0.3-0.7
		C199.4,153.9,199.6,153.8,199.9,153.8L199.9,153.8z"/>
	<path fill="#525E66" d="M215.9,159.4h-1.2V158h1.2v-2.3l1.8-0.5v2.8h1.9l-0.4,1.4h-1.5v6.6c0,0.8,0.4,1.3,1.3,1.3h0.8v1.3
		c-0.2,0.1-0.4,0.1-0.6,0.2c-0.2,0-0.4,0.1-0.6,0.1c-0.4,0-0.7-0.1-1.1-0.2c-0.3-0.1-0.6-0.3-0.9-0.6c-0.2-0.3-0.4-0.5-0.6-0.9
		c-0.1-0.3-0.2-0.7-0.2-1.1V159.4L215.9,159.4z"/>
	<path fill="#525E66" d="M235.3,163.8c0,1.2,0.3,2.1,0.8,2.7c0.6,0.6,1.4,0.8,2.6,0.8c0.6,0,1-0.1,1.4-0.3c0.4-0.2,0.7-0.5,1-1
		l1.6,0.6c-0.4,0.7-1,1.2-1.7,1.6c-0.7,0.4-1.5,0.6-2.5,0.6c-0.9,0-1.7-0.1-2.4-0.4c-0.6-0.3-1.2-0.6-1.6-1.1
		c-0.4-0.5-0.7-1-0.9-1.7c-0.2-0.7-0.3-1.4-0.3-2.2v-0.2c0-0.3,0-0.7,0-1c0-0.3,0.1-0.7,0.1-1c0.1-0.3,0.2-0.6,0.3-1
		c0.2-0.3,0.4-0.6,0.6-0.9c0.5-0.5,1-0.9,1.7-1.2c0.7-0.3,1.3-0.4,2-0.4c0.8,0,1.5,0.1,2.1,0.4c0.6,0.3,1.1,0.6,1.5,1
		c0.4,0.4,0.7,1,0.9,1.6c0.2,0.6,0.3,1.3,0.3,2v0.9H235.3L235.3,163.8z M235.3,162.3h6.1v-0.2c0-0.3-0.1-0.7-0.2-1
		c-0.1-0.3-0.3-0.6-0.6-0.9c-0.3-0.3-0.6-0.5-1-0.6c-0.4-0.2-0.8-0.2-1.3-0.2c-0.4,0-0.9,0.1-1.2,0.2c-0.4,0.2-0.7,0.4-1,0.6
		c-0.3,0.3-0.5,0.6-0.6,0.9c-0.1,0.3-0.2,0.7-0.2,1V162.3L235.3,162.3z"/>
	<path fill="#525E66" d="M262.3,157.8c0.6,0,1.2,0.1,1.9,0.3c0.6,0.2,1.1,0.6,1.6,1l-1.1,1.1c-0.3-0.3-0.6-0.5-1-0.6
		c-0.4-0.2-0.8-0.2-1.4-0.2c-0.5,0-0.9,0.1-1.3,0.2c-0.4,0.2-0.8,0.4-1,0.7c-0.3,0.3-0.5,0.7-0.7,1.2c-0.2,0.5-0.2,1-0.2,1.4v0.3
		c0,0.6,0.1,1.2,0.3,1.8c0.2,0.6,0.4,1,0.8,1.4c0.3,0.3,0.6,0.5,0.9,0.6c0.4,0.1,0.8,0.2,1.3,0.2c0.4,0,0.9-0.1,1.3-0.2
		c0.5-0.1,0.8-0.4,1.1-0.7l1.1,1.1c-0.5,0.5-1,0.8-1.6,1.1c-0.6,0.2-1.3,0.3-1.9,0.3c-0.6,0-1.1-0.1-1.7-0.3
		c-0.6-0.2-1.1-0.4-1.6-0.8c-0.4-0.3-0.7-0.7-0.9-1.1c-0.2-0.4-0.4-0.9-0.5-1.4c-0.1-0.3-0.1-0.7-0.1-1c0-0.3,0-0.7,0-1v-0.4
		c0-0.3,0-0.7,0-1c0-0.3,0.1-0.6,0.1-0.9c0.1-0.3,0.2-0.6,0.3-0.9c0.1-0.3,0.4-0.6,0.6-0.9c0.2-0.3,0.5-0.5,0.8-0.7
		c0.3-0.2,0.6-0.4,1-0.5c0.3-0.1,0.7-0.2,1.1-0.3C261.6,157.8,262,157.8,262.3,157.8L262.3,157.8z"/>
	<path fill="#525E66" d="M280.6,159.4h-1.2V158h1.2v-2.3l1.8-0.5v2.8h1.9l-0.4,1.4h-1.5v6.6c0,0.8,0.4,1.3,1.3,1.3h0.8v1.3
		c-0.2,0.1-0.4,0.1-0.6,0.2c-0.2,0-0.4,0.1-0.6,0.1c-0.4,0-0.7-0.1-1.1-0.2c-0.3-0.1-0.6-0.3-0.9-0.6c-0.2-0.3-0.4-0.5-0.6-0.9
		c-0.1-0.3-0.2-0.7-0.2-1.1V159.4L280.6,159.4z"/>
	<path fill="#525E66" d="M302.3,168.8c-1.3,0-2.3-0.3-2.9-1c-0.6-0.6-0.9-1.6-0.9-2.9v-6.7l1.8-0.5v7.2c0,0.8,0.2,1.4,0.5,1.8
		c0.3,0.4,0.8,0.5,1.5,0.5c0.4,0,0.9-0.1,1.4-0.4c0.5-0.3,1.1-0.7,1.6-1.3v-7.3l1.8-0.5v8.4c0,0.5,0,0.9,0.1,1.3
		c0.1,0.3,0.3,0.7,0.5,1.1h-1.9c-0.1-0.1-0.2-0.3-0.3-0.6c-0.1-0.2-0.1-0.5-0.1-0.7c-0.3,0.3-0.6,0.5-0.9,0.8
		c-0.3,0.2-0.6,0.4-1,0.5C303.1,168.7,302.7,168.8,302.3,168.8L302.3,168.8z"/>
	<path fill="#525E66" d="M324.3,159.1c0.3-0.4,0.6-0.7,0.9-1c0.4-0.2,0.8-0.3,1.3-0.3c0.5,0,1.1,0.2,1.7,0.5l-0.6,1.7
		c-0.4-0.2-0.8-0.3-1.2-0.3c-0.4,0-0.7,0.1-1,0.3c-0.3,0.2-0.5,0.4-0.7,0.8c-0.2,0.3-0.3,0.7-0.4,1.1c-0.1,0.4-0.1,0.9-0.1,1.4v5.4
		h-1.8v-8c0-0.7-0.2-1.4-0.5-2.1l1.7-0.8c0.1,0.2,0.2,0.4,0.3,0.6c0.1,0.2,0.2,0.4,0.2,0.7H324.3L324.3,159.1z"/>
	<path fill="#525E66" d="M343.5,163.8c0,1.2,0.3,2.1,0.8,2.7c0.6,0.6,1.4,0.8,2.6,0.8c0.6,0,1-0.1,1.4-0.3c0.4-0.2,0.7-0.5,1-1
		l1.6,0.6c-0.4,0.7-1,1.2-1.7,1.6c-0.7,0.4-1.5,0.6-2.5,0.6c-0.9,0-1.7-0.1-2.4-0.4c-0.6-0.3-1.2-0.6-1.6-1.1
		c-0.4-0.5-0.7-1-0.9-1.7c-0.2-0.7-0.3-1.4-0.3-2.2v-0.2c0-0.3,0-0.7,0-1c0-0.3,0.1-0.7,0.1-1c0.1-0.3,0.2-0.6,0.3-1
		c0.2-0.3,0.4-0.6,0.6-0.9c0.5-0.5,1-0.9,1.7-1.2c0.7-0.3,1.3-0.4,2-0.4c0.8,0,1.5,0.1,2.1,0.4c0.6,0.3,1.1,0.6,1.5,1
		c0.4,0.4,0.7,1,0.9,1.6c0.2,0.6,0.3,1.3,0.3,2v0.9H343.5L343.5,163.8z M343.5,162.3h6.1v-0.2c0-0.3-0.1-0.7-0.2-1
		c-0.1-0.3-0.3-0.6-0.6-0.9c-0.3-0.3-0.6-0.5-1-0.6c-0.4-0.2-0.8-0.2-1.3-0.2c-0.4,0-0.9,0.1-1.2,0.2c-0.4,0.2-0.7,0.4-1,0.6
		c-0.3,0.3-0.5,0.6-0.6,0.9c-0.1,0.3-0.2,0.7-0.2,1V162.3L343.5,162.3z"/>
	<path fill="#525E66" d="M204.6,82.2C204.6,82.2,204.6,82.2,204.6,82.2L204.6,82.2c-1.1-1.3-2.1-2.6-3.3-3.8
		c-1.6-1.8-3.4-3.5-5.3-5.2c-4.7-4.2-10.1-8.2-15.8-11.2l0,0c-6.1-3.2-11.7-5-17.2-5.8c-3.7-0.6-7.4-0.7-11.1-0.5l-2.2,2.9l-0.3-0.3
		l2-2.6c-1.7,0.1-3.3,0.3-5,0.5l-0.1-0.4c1.8-0.2,3.6-0.4,5.4-0.5l3.6-4.7c-1.5,0.1-3.1,0.2-4.7,0.3l0-0.4c1.7-0.2,3.4-0.3,5.1-0.3
		l2.1-2.8l0.3,0.3l-1.9,2.5c4-0.1,7.9,0.1,11.7,0.7c5.6,0.9,11.1,2.8,17.1,5.8c4.8,2.4,9.3,5.5,13.5,9c4.3,3.6,8.3,7.7,11.8,12.2
		c5.5-0.4,10.8-2.4,15.9-5c5.1-2.7,10.1-6.1,15-9.5c1.2-0.9,2.5-1.7,3.6-2.5c1.1-0.8,2.3-1.6,3.5-2.3c-0.1-0.6-0.1-1.2-0.1-1.6
		c-0.1-0.6-0.1-1.1-0.2-1.7l0,0c-0.2-1.7-0.3-3.4-0.5-5.1c-1-7.2-2.4-14.3-4.5-21.3l-3.5,2.8l-0.3-0.3l3.6-2.9
		c-0.5-1.8-1.1-3.5-1.7-5.3l0.4-0.1c0.6,1.7,1.1,3.4,1.6,5.2l5-4c-0.3-1-0.5-1.9-0.8-2.9l0.4-0.1c0.3,0.9,0.5,1.8,0.8,2.7l3.1-2.5
		l0.3,0.3l-3.3,2.6c0.4,1.4,0.8,3,1.1,4.5c1.3,5.3,2.4,10.6,3.1,16c0.3,2.2,0.6,4.4,0.8,6.4c0.1,0.8,0.1,1.5,0.2,2.1
		c0.1,0.6,0.1,1.1,0.1,1.7c14.4-8.5,25.3-7.4,34.3-1.3c3.8,2.6,7.2,6.1,10.5,10.1c3.2,3.8,6.5,8.5,9.8,14.2l2.8-2.6l0.3,0.3
		l-2.9,2.7c1,1.6,1.9,3.2,2.8,4.8l-0.4,0.2c-0.9-1.6-1.9-3.1-2.8-4.7l-4.7,4.4c0.9,1.6,1.9,3.3,2.8,4.9l-0.4,0.2
		c-0.9-1.6-1.8-3.2-2.7-4.8l-3.2,3l-0.3-0.3l3.3-3.1c-1.5-2.5-3-5.1-4.6-7.5c-6.1-9-11.8-14.7-17.3-17.9c-7.4-4.1-16.2-4.7-27,1
		c0.3,4.2,0.4,8.4,0.4,12.6c0,2.4,0,4.7,0,7.1l3-2.1l0.2,0.4l-3.2,2.3c0,1.7,0,3.5-0.1,5.2l-0.4,0c0-1.6,0-3.2,0.1-4.9l-4.9,3.4
		c0,2.1,0,4.3-0.1,6.4l-0.4,0c0-2,0-4.1,0.1-6.1l-3.7,2.6l-0.2-0.4l3.9-2.8c0-2.3,0-4.7,0-7c-0.1-4.4-0.2-8.8-0.5-13.3
		c-1.3,0.8-2.5,1.6-3.8,2.5c-1.4,0.9-2.8,1.9-4.2,2.8c-6.5,4.5-12.4,8.5-18.7,11.5c-5,2.4-10.2,4-16,4.6c0.8,1.1,1.5,2.2,2.2,3.2
		l-0.4,0.2c-0.7-1.1-1.5-2.2-2.3-3.4c-1.3,0.1-2.5,0.2-3.8,0.2v-0.4c1.2,0,2.4-0.1,3.5-0.1C205.1,82.7,204.9,82.5,204.6,82.2
		L204.6,82.2z"/>
</g>
</svg>
