<?xml version="1.0" encoding="utf-8"?>
<!-- Generator: Adobe Illustrator 18.1.0, SVG Export Plug-In . SVG Version: 6.00 Build 0)  -->
<svg version="1.1" id="Layer_1" xmlns="http://www.w3.org/2000/svg" xmlns:xlink="http://www.w3.org/1999/xlink" x="0px" y="0px"
	 viewBox="0 9.6 623.6 248.9" enable-background="new 0 9.6 623.6 248.9" xml:space="preserve">
<g>
	<polygon fill="#525E66" points="27.1,191.4 16.8,164.2 21.2,163 27.5,179.9 29.2,185.9 31,179.9 37.4,163 41.7,164.2 31.6,191.4 	
		"/>
	<path fill="#525E66" d="M66.2,163c1.8,0,3.4,0.4,5.2,1.1c1.6,0.7,3.1,1.6,4.2,3l-2.9,2.9c-0.7-0.7-1.5-1.2-2.5-1.9
		c-1.1-0.5-2.5-0.8-4.1-0.8c-0.5,0-1.2,0-1.9,0.1c-0.7,0.1-1.4,0.3-1.9,0.5s-1.1,0.7-1.5,1.2c-0.4,0.5-0.5,1.2-0.5,2
		c0,1,0.4,1.6,1.2,2.2c0.8,0.5,1.9,1,3.1,1.4s2.6,0.8,4.1,1.1c1.5,0.4,2.7,0.8,4.1,1.4c1.2,0.5,2.3,1.4,3.1,2.3
		c0.8,1,1.2,2.2,1.2,3.7c0,2.9-1,5.2-2.9,6.8c-1.9,1.6-4.6,2.5-8.3,2.5c-2.7,0-5.1-0.4-7-1.4c-1.9-1-3.4-2.5-4.5-4.5l3.4-2.2
		c0.5,0.5,1,1.1,1.5,1.5c0.5,0.4,1.1,1,1.8,1.2c0.7,0.4,1.4,0.7,2.2,0.8s1.8,0.3,3,0.3c0.5,0,1.2,0,1.9-0.1c0.7-0.1,1.4-0.3,2-0.7
		c0.5-0.3,1.1-0.8,1.5-1.4s0.5-1.4,0.5-2.3c0-1.1-0.4-1.9-1.2-2.5c-0.8-0.5-1.9-1-3.1-1.4c-1.2-0.4-2.6-0.7-4-1
		c-1.5-0.3-2.7-0.7-4-1.4c-1.2-0.5-2.3-1.4-3.1-2.5s-1.2-2.5-1.2-4.4c0-1.5,0.4-2.6,1.1-3.5c0.7-1,1.6-1.8,2.6-2.3
		c1.1-0.5,2.2-1.1,3.4-1.4C63.8,163.1,65,163,66.2,163L66.2,163z"/>
	<path fill="#525E66" d="M95.7,178.7c0,3.3,0.7,5.6,2.2,7.1c1.5,1.5,3.7,2.2,6.8,2.2c1.5,0,2.7-0.3,3.8-1c1.1-0.5,1.9-1.5,2.7-2.5
		l4.2,1.8c-1.1,1.8-2.6,3.3-4.5,4.2c-1.9,1.1-4.1,1.5-6.6,1.5s-4.5-0.4-6.3-1c-1.8-0.7-3.1-1.6-4.2-2.9c-1.1-1.2-1.8-2.7-2.3-4.5
		c-0.5-1.8-0.7-3.7-0.7-5.9v-0.5c0-1,0-1.8,0-2.7c0-0.8,0.1-1.8,0.3-2.6c0.1-0.8,0.5-1.6,0.8-2.5c0.4-0.8,1-1.6,1.8-2.5
		c1.2-1.4,2.7-2.5,4.5-3.1c1.8-0.7,3.5-1,5.3-1c2,0,4,0.3,5.5,1c1.6,0.7,3,1.6,4.1,2.7c1.1,1.2,1.9,2.6,2.5,4.2s0.8,3.4,0.8,5.3v2.5
		H95.7L95.7,178.7z M95.7,174.8h16.1v-0.5c0-1-0.1-1.8-0.5-2.7c-0.4-0.8-1-1.6-1.6-2.3c-0.7-0.7-1.5-1.2-2.6-1.6
		c-1-0.4-2.2-0.7-3.4-0.7c-1.2,0-2.3,0.1-3.3,0.5c-1,0.4-1.9,1-2.6,1.6c-0.7,0.7-1.2,1.5-1.6,2.3s-0.5,1.8-0.5,2.7v0.7H95.7z"/>
	<polygon fill="#525E66" points="139.5,191.4 129.3,164.2 133.5,163 139.9,179.9 141.7,185.9 143.5,179.9 149.9,163 154.1,164.2 
		143.9,191.4 	"/>
	<path fill="#525E66" d="M189,177.6v-1.1c0-2.7-0.7-4.9-2-6.6c-0.7-0.8-1.6-1.6-2.7-2c-1.1-0.5-2.3-0.7-3.8-0.7
		c-1.4,0-2.6,0.3-3.7,0.7c-1.1,0.4-1.9,1.1-2.7,1.9c-1.5,1.6-2.2,4-2.2,6.8v1.2c0,1.5,0.1,3,0.5,4.4c0.3,1.4,1,2.5,1.8,3.4
		c0.7,0.8,1.5,1.5,2.6,1.9c1.1,0.4,2.3,0.7,3.8,0.7c1.4,0,2.6-0.1,3.5-0.5c1-0.4,1.8-1,2.6-1.8c1-1,1.6-2.2,2-3.5
		C188.7,180.7,189,179.1,189,177.6L189,177.6z M189.8,188.1c-1.2,1.4-2.7,2.3-4.4,3c-1.6,0.7-3.4,1-5.2,1s-3.5-0.3-5.2-1
		c-1.6-0.7-3.1-1.6-4.4-3c-1.4-1.4-2.3-3-2.7-4.9c-0.4-1.8-0.7-3.8-0.7-5.7v-1.1c0-1.9,0.3-3.7,0.7-5.2c0.4-1.5,1.4-3,2.9-4.5
		c1.2-1.4,2.7-2.3,4.4-2.9c1.6-0.7,3.3-1,5.2-1c1.8,0,3.5,0.3,5.1,1c1.5,0.5,3,1.5,4.2,2.9c1.4,1.4,2.3,2.9,2.9,4.4
		c0.5,1.6,0.8,3.3,0.8,5.2v1.1c0,2-0.3,3.8-0.7,5.6C192.2,184.9,191.3,186.6,189.8,188.1L189.8,188.1z"/>
	<path fill="#525E66" d="M208.5,153.7l4.8-1.4v32.4c0,2.2,1.1,3.3,3.4,3.3h2.9v3.4c-0.7,0.3-1.4,0.4-2,0.5c-0.7,0.1-1.4,0.1-1.9,0.1
		c-1,0-1.9-0.1-2.7-0.5c-0.8-0.4-1.6-1-2.3-1.6s-1.1-1.5-1.5-2.3c-0.4-1-0.5-1.9-0.5-3L208.5,153.7L208.5,153.7z"/>
	<path fill="#525E66" d="M253.3,177.6v-1.1c0-2.7-0.7-4.9-2-6.6c-0.7-0.8-1.6-1.6-2.7-2c-1.1-0.5-2.3-0.7-3.8-0.7
		c-1.4,0-2.6,0.3-3.7,0.7c-1.1,0.4-1.9,1.1-2.7,1.9c-1.5,1.6-2.2,4-2.2,6.8v1.2c0,1.5,0.1,3,0.5,4.4c0.3,1.4,1,2.5,1.8,3.4
		c0.7,0.8,1.5,1.5,2.6,1.9c1.1,0.4,2.3,0.7,3.8,0.7c1.4,0,2.6-0.1,3.5-0.5c1-0.4,1.8-1,2.6-1.8c1-1,1.6-2.2,2-3.5
		C253.1,180.7,253.3,179.1,253.3,177.6L253.3,177.6z M254.2,188.1c-1.2,1.4-2.7,2.3-4.4,3c-1.6,0.7-3.4,1-5.2,1
		c-1.8,0-3.5-0.3-5.2-1c-1.6-0.7-3.1-1.6-4.4-3c-1.4-1.4-2.3-3-2.7-4.9c-0.4-1.8-0.7-3.8-0.7-5.7v-1.1c0-1.9,0.3-3.7,0.7-5.2
		c0.4-1.5,1.4-3,2.9-4.5c1.2-1.4,2.7-2.3,4.4-2.9c1.6-0.7,3.3-1,5.2-1c1.8,0,3.5,0.3,5.1,1c1.5,0.5,3,1.5,4.2,2.9
		c1.4,1.4,2.3,2.9,2.9,4.4c0.5,1.6,0.8,3.3,0.8,5.2v1.1c0,2-0.3,3.8-0.7,5.6C256.7,184.9,255.7,186.6,254.2,188.1L254.2,188.1z"/>
	<path fill="#525E66" d="M289.7,168.3c-0.7-0.4-1.5-0.7-2.6-1c-1.1-0.3-2-0.3-3.1-0.3c-2.7,0-4.9,0.8-6.4,2.6s-2.3,4.1-2.3,7.1v3.3
		c0,1.1,0.1,2,0.3,3c0.3,1,0.5,1.8,1.1,2.6c0.5,0.8,1.2,1.4,1.9,1.8c0.8,0.4,1.8,0.7,3,0.7c1.1,0,2.3-0.4,3.8-1
		c1.5-0.7,2.9-1.8,4.4-3.4V168.3L289.7,168.3z M289.7,153.7l4.8-1.4v32.6c0,1.4,0.1,2.5,0.4,3.4c0.3,1,0.7,1.9,1.2,3h-5.1
		c-0.3-0.4-0.5-0.8-0.7-1.5c-0.1-0.7-0.3-1.2-0.3-1.8c-0.7,0.7-1.5,1.4-2.5,2c-0.7,0.5-1.6,1-2.6,1.4c-1.1,0.4-2.2,0.5-3.3,0.5
		c-2,0-3.7-0.3-5.1-1c-1.4-0.7-2.6-1.5-3.4-2.7c-1-1.1-1.5-2.5-1.9-4c-0.4-1.5-0.5-3.1-0.5-4.8V177c0-4.8,1.1-8.2,3.4-10.5
		c2.3-2.3,5.7-3.5,10.4-3.5c1.8,0,3.5,0.4,5.3,1.1v-10.4H289.7z"/>
	<path fill="#525E66" d="M347.4,163.6c1.5,0,3,0.3,4.2,0.8c1.2,0.5,2.3,1.2,3.1,2.2c0.8,1,1.5,2,2,3.3c0.5,1.2,0.7,2.6,0.7,4.1v17.3
		h-4.8v-18c0-1.8-0.5-3.1-1.5-4.2c-1-1.1-2.3-1.6-4.1-1.6c-2.2,0-4,0.5-5.2,1.6s-2,2.6-2.5,4.2v17.9h-4.8v-37.7l4.8-1.4v14.6
		c1.1-1.4,2.5-2.3,3.8-2.7C344.7,163.8,346.1,163.6,347.4,163.6L347.4,163.6z"/>
	<path fill="#525E66" d="M393.7,177.6v-1.1c0-2.7-0.7-4.9-2-6.6c-0.7-0.8-1.6-1.6-2.7-2c-1.1-0.5-2.3-0.7-3.8-0.7
		c-1.4,0-2.6,0.3-3.7,0.7c-1.1,0.4-1.9,1.1-2.7,1.9c-1.5,1.6-2.2,4-2.2,6.8v1.2c0,1.5,0.1,3,0.5,4.4c0.3,1.4,1,2.5,1.8,3.4
		c0.7,0.8,1.5,1.5,2.6,1.9c1.1,0.4,2.3,0.7,3.8,0.7c1.4,0,2.6-0.1,3.5-0.5c1-0.4,1.8-1,2.6-1.8c1-1,1.6-2.2,2-3.5
		C393.6,180.7,393.7,179.1,393.7,177.6L393.7,177.6z M394.5,188.1c-1.2,1.4-2.7,2.3-4.4,3c-1.6,0.7-3.4,1-5.2,1
		c-1.8,0-3.5-0.3-5.2-1c-1.6-0.7-3.1-1.6-4.4-3c-1.4-1.4-2.3-3-2.7-4.9c-0.4-1.8-0.7-3.8-0.7-5.7v-1.1c0-1.9,0.3-3.7,0.7-5.2
		c0.4-1.5,1.4-3,2.9-4.5c1.2-1.4,2.7-2.3,4.4-2.9c1.6-0.7,3.3-1,5.2-1c1.8,0,3.5,0.3,5.1,1c1.5,0.5,3,1.5,4.2,2.9
		c1.4,1.4,2.3,2.9,2.9,4.4c0.5,1.6,0.8,3.3,0.8,5.2v1.1c0,2-0.3,3.8-0.7,5.6C397,184.9,396,186.6,394.5,188.1L394.5,188.1z"/>
	<polygon fill="#525E66" points="421.4,191.4 411.2,164.2 415.4,163 421.8,179.9 423.6,185.9 425.4,179.9 431.8,163 436,164.2 
		425.8,191.4 	"/>
	<path fill="#525E66" d="M455.1,166.4c0.7-1.1,1.5-1.9,2.5-2.6c1-0.5,2-1,3.4-1c1.5,0,3,0.4,4.6,1.2l-1.6,4.4
		c-1.1-0.5-2.2-0.8-3.1-0.8c-1,0-1.8,0.3-2.5,0.7c-0.7,0.5-1.4,1.2-1.8,2s-0.8,1.9-1,3c-0.3,1.1-0.3,2.5-0.3,3.7v14.2h-4.8v-21
		c0-1.9-0.4-3.8-1.2-5.5l4.4-2c0.3,0.5,0.5,1.1,0.8,1.6s0.4,1.2,0.5,1.9l0,0V166.4z"/>
	<path fill="#525E66" d="M487.1,187.9c0.7,0,1.4-0.1,2.3-0.4c0.8-0.3,1.8-0.7,2.6-1.1c1-0.4,1.8-0.8,2.6-1.2
		c0.8-0.4,1.5-0.8,2.2-1.1v-4.8h-10.2c-0.5,0-1.1,0.1-1.6,0.4c-0.5,0.3-1,0.5-1.4,1s-0.7,0.8-0.8,1.4c-0.3,0.5-0.3,1.1-0.3,1.6
		c0,0.7,0.1,1.2,0.4,1.8c0.3,0.5,0.7,1,1.1,1.4s1,0.7,1.5,1C486,187.9,486.5,187.9,487.1,187.9L487.1,187.9z M490.4,163
		c1.5,0,3,0.3,4.4,0.7c1.4,0.4,2.5,1.1,3.5,1.9c1,0.8,1.8,1.9,2.5,3.1c0.5,1.2,0.8,2.7,0.8,4.4v12c0,1.2,0.1,2.5,0.4,3.3
		c0.3,1,0.7,1.9,1.2,3h-5.1c-0.3-0.4-0.5-1-0.7-1.5c-0.1-0.7-0.3-1.2-0.3-1.8c-1.5,1.1-3.1,2-5.1,2.7c-1.8,0.8-3.7,1.1-5.6,1.1
		c-1.2,0-2.5-0.1-3.5-0.5c-1.1-0.4-2-1-2.9-1.8c-0.8-0.8-1.5-1.6-1.9-2.7s-0.7-2.2-0.7-3.5c0-1.2,0.3-2.3,0.7-3.4
		c0.5-1,1.1-1.9,1.9-2.6c0.8-0.7,1.8-1.4,2.9-1.8c1.1-0.4,2.2-0.5,3.4-0.5h10.4v-2.5c0-1.9-0.5-3.4-1.8-4.2c-1.2-1-2.7-1.4-4.6-1.4
		c-1.6,0-3.1,0.1-4.4,0.5c-1.2,0.4-2.6,1.1-4,1.9l-2-3.5c0.8-0.5,1.8-1,2.5-1.4c0.8-0.4,1.6-0.7,2.5-1c0.8-0.3,1.6-0.4,2.6-0.5
		C488.5,163,489.4,163,490.4,163L490.4,163z"/>
	<path fill="#525E66" d="M519,167.3h-3.1v-3.7h3.1v-6l4.8-1.4v7.2h5.1l-1.1,3.7h-4v17.3c0,2.2,1.1,3.3,3.4,3.3h2v3.4
		c-0.7,0.3-1.2,0.4-1.6,0.4c-0.4,0.1-1,0.1-1.5,0.1c-1,0-1.9-0.1-2.7-0.5c-0.8-0.4-1.6-0.8-2.3-1.5s-1.1-1.5-1.5-2.3
		c-0.4-1-0.5-1.9-0.5-3V167.3L519,167.3z"/>
	<path fill="#525E66" d="M563.8,177.6v-1.1c0-2.7-0.7-4.9-2-6.6c-0.7-0.8-1.6-1.6-2.7-2c-1.1-0.5-2.3-0.7-3.8-0.7
		c-1.4,0-2.6,0.3-3.7,0.7c-1.1,0.4-1.9,1.1-2.7,1.9c-1.5,1.6-2.2,4-2.2,6.8v1.2c0,1.5,0.1,3,0.5,4.4c0.3,1.4,1,2.5,1.8,3.4
		c0.7,0.8,1.5,1.5,2.6,1.9c1.1,0.4,2.3,0.7,3.8,0.7c1.4,0,2.6-0.1,3.5-0.5c1-0.4,1.8-1,2.6-1.8c1-1,1.6-2.2,2-3.5
		C563.7,180.7,563.8,179.1,563.8,177.6L563.8,177.6z M564.8,188.1c-1.2,1.4-2.7,2.3-4.4,3c-1.6,0.7-3.4,1-5.2,1
		c-1.8,0-3.5-0.3-5.2-1c-1.6-0.7-3.1-1.6-4.4-3c-1.4-1.4-2.3-3-2.7-4.9c-0.4-1.8-0.7-3.8-0.7-5.7v-1.1c0-1.9,0.3-3.7,0.7-5.2
		c0.4-1.5,1.4-3,2.9-4.5c1.2-1.4,2.7-2.3,4.4-2.9c1.6-0.7,3.3-1,5.2-1c1.8,0,3.5,0.3,5.1,1c1.5,0.5,3,1.5,4.2,2.9
		c1.4,1.4,2.3,2.9,2.9,4.4c0.5,1.6,0.8,3.3,0.8,5.2v1.1c0,2-0.3,3.8-0.7,5.6C567.2,184.9,566.3,186.6,564.8,188.1L564.8,188.1z"/>
	<polygon fill="#525E66" points="591.5,191.4 581.3,164.2 585.5,163 591.9,179.9 593.7,185.9 595.5,179.9 601.9,163 606.1,164.2 
		595.9,191.4 	"/>
	<path fill="#525E66" d="M150.6,229.7c0.4,0,0.7-0.1,1.2-0.3c0.4-0.1,1-0.3,1.4-0.5c0.4-0.3,1-0.4,1.4-0.7c0.4-0.3,0.8-0.4,1.1-0.5
		v-2.5h-5.3c-0.3,0-0.5,0-0.8,0.1c-0.3,0.1-0.5,0.3-0.7,0.5c-0.1,0.1-0.3,0.4-0.4,0.7c-0.1,0.3-0.1,0.5-0.1,0.8c0,0.4,0.1,0.7,0.3,1
		c0.1,0.3,0.3,0.5,0.5,0.7c0.3,0.1,0.5,0.4,0.8,0.4C150,229.6,150.3,229.7,150.6,229.7L150.6,229.7z M152.4,216.7
		c0.8,0,1.5,0.1,2.2,0.4c0.7,0.3,1.4,0.5,1.8,1c0.5,0.4,1,1,1.2,1.6s0.4,1.4,0.4,2.3v6.3c0,0.7,0,1.2,0.1,1.8c0.1,0.4,0.3,1,0.7,1.6
		h-2.6c-0.1-0.3-0.3-0.4-0.4-0.8c-0.1-0.3-0.1-0.7-0.1-0.8c-0.8,0.5-1.6,1.1-2.6,1.5c-1,0.4-1.9,0.5-2.9,0.5c-0.7,0-1.2-0.1-1.8-0.3
		c-0.5-0.3-1.1-0.5-1.5-1s-0.7-0.8-1-1.4c-0.3-0.5-0.4-1.1-0.4-1.8c0-0.7,0.1-1.2,0.4-1.8c0.3-0.5,0.5-1,1-1.4c0.4-0.4,1-0.7,1.5-1
		c0.5-0.3,1.1-0.3,1.8-0.3h5.3v-1.2c0-1-0.3-1.8-1-2.2c-0.7-0.4-1.4-0.7-2.3-0.7c-0.8,0-1.6,0.1-2.3,0.3c-0.7,0.3-1.4,0.5-2,1
		l-1.1-1.8c0.4-0.3,1-0.5,1.4-0.7c0.4-0.1,0.8-0.4,1.2-0.5c0.4-0.1,0.8-0.3,1.4-0.3C151.3,216.7,151.8,216.7,152.4,216.7
		L152.4,216.7z"/>
	<path fill="#525E66" d="M181.4,218.5c0.4-0.5,0.8-1,1.2-1.4c0.5-0.3,1.1-0.4,1.8-0.4s1.5,0.3,2.3,0.7l-0.8,2.3
		c-0.5-0.3-1.1-0.4-1.6-0.4s-1,0.1-1.4,0.4c-0.4,0.3-0.7,0.5-1,1.1c-0.3,0.4-0.4,1-0.5,1.5c-0.1,0.5-0.1,1.2-0.1,1.9v7.4h-2.5v-10.9
		c0-1-0.3-1.9-0.7-2.9l2.3-1.1c0.1,0.3,0.3,0.5,0.4,0.8c0.1,0.3,0.3,0.5,0.3,1L181.4,218.5L181.4,218.5z"/>
	<path fill="#525E66" d="M212,216.7c0.8,0,1.6,0.1,2.6,0.4c0.8,0.3,1.5,0.8,2.2,1.4l-1.5,1.5c-0.4-0.4-0.8-0.7-1.4-0.8
		c-0.5-0.3-1.1-0.3-1.9-0.3c-0.7,0-1.2,0.1-1.8,0.3c-0.5,0.3-1.1,0.5-1.4,1c-0.4,0.4-0.7,1-1,1.6c-0.3,0.7-0.3,1.4-0.3,1.9v0.4
		c0,0.8,0.1,1.6,0.4,2.5c0.3,0.8,0.5,1.4,1.1,1.9c0.4,0.4,0.8,0.7,1.2,0.8c0.5,0.1,1.1,0.3,1.8,0.3c0.5,0,1.2-0.1,1.8-0.3
		c0.7-0.1,1.1-0.5,1.5-1l1.5,1.5c-0.7,0.7-1.4,1.1-2.2,1.5c-0.8,0.3-1.8,0.4-2.6,0.4s-1.5-0.1-2.3-0.4c-0.8-0.3-1.5-0.5-2.2-1.1
		c-0.5-0.4-1-1-1.2-1.5c-0.3-0.5-0.5-1.2-0.7-1.9c-0.1-0.4-0.1-1-0.1-1.4s0-1,0-1.4v-0.5c0-0.4,0-1,0-1.4s0.1-0.8,0.1-1.2
		c0.1-0.4,0.3-0.8,0.4-1.2c0.1-0.4,0.5-0.8,0.8-1.2c0.3-0.4,0.7-0.7,1.1-1c0.4-0.3,0.8-0.5,1.4-0.7c0.4-0.1,1-0.3,1.5-0.4
		C211.1,216.7,211.6,216.7,212,216.7L212,216.7z"/>
	<path fill="#525E66" d="M243.3,217c0.8,0,1.5,0.1,2.2,0.4c0.7,0.3,1.2,0.7,1.6,1.1c0.4,0.5,0.8,1.1,1.1,1.8
		c0.3,0.7,0.4,1.4,0.4,2.2v9h-2.5v-9.3c0-1-0.3-1.6-0.7-2.2c-0.5-0.5-1.2-0.8-2-0.8c-1.2,0-2,0.3-2.7,0.8c-0.7,0.5-1.1,1.4-1.4,2.2
		v9.3h-2.5V212l2.5-0.7v7.6c0.5-0.7,1.2-1.2,1.9-1.4C241.9,217.2,242.6,217,243.3,217L243.3,217z"/>
	<path fill="#525E66" d="M268,231.5V217h2.5v14.5H268L268,231.5z M269.2,211.3c0.4,0,0.7,0.1,1,0.4c0.3,0.3,0.4,0.5,0.4,1
		s-0.1,0.7-0.4,1c-0.3,0.3-0.5,0.4-1,0.4s-0.7-0.1-1-0.4c-0.3-0.3-0.4-0.5-0.4-1s0.1-0.7,0.4-1C268.5,211.4,268.8,211.3,269.2,211.3
		L269.2,211.3z"/>
	<path fill="#525E66" d="M291.1,218.9h-1.6V217h1.6v-3.1l2.5-0.7v3.8h2.6l-0.5,1.9h-2v9c0,1.1,0.5,1.8,1.8,1.8h1.1v1.8
		c-0.3,0.1-0.5,0.1-0.8,0.3c-0.3,0-0.5,0.1-0.8,0.1c-0.5,0-1-0.1-1.5-0.3c-0.4-0.1-0.8-0.4-1.2-0.8c-0.3-0.4-0.5-0.7-0.8-1.2
		c-0.1-0.4-0.3-1-0.3-1.5v-9.1H291.1z"/>
	<path fill="#525E66" d="M317.5,224.9c0,1.6,0.4,2.9,1.1,3.7c0.8,0.8,1.9,1.1,3.5,1.1c0.8,0,1.4-0.1,1.9-0.4c0.5-0.3,1-0.7,1.4-1.4
		l2.2,0.8c-0.5,1-1.4,1.6-2.3,2.2c-1,0.5-2,0.8-3.4,0.8c-1.2,0-2.3-0.1-3.3-0.5c-0.8-0.4-1.6-0.8-2.2-1.5c-0.5-0.7-1-1.4-1.2-2.3
		s-0.4-1.9-0.4-3v-0.3c0-0.4,0-1,0-1.4c0-0.4,0.1-1,0.1-1.4c0.1-0.4,0.3-0.8,0.4-1.4c0.3-0.4,0.5-0.8,0.8-1.2
		c0.7-0.7,1.4-1.2,2.3-1.6c1-0.4,1.8-0.5,2.7-0.5c1.1,0,2,0.1,2.9,0.5c0.8,0.4,1.5,0.8,2,1.4s1,1.4,1.2,2.2c0.3,0.8,0.4,1.8,0.4,2.7
		v1.2h-10.2V224.9z M317.5,222.9h8.3v-0.3c0-0.4-0.1-1-0.3-1.4c-0.1-0.4-0.4-0.8-0.8-1.2c-0.4-0.4-0.8-0.7-1.4-0.8
		c-0.5-0.3-1.1-0.3-1.8-0.3c-0.5,0-1.2,0.1-1.6,0.3c-0.5,0.3-1,0.5-1.4,0.8c-0.4,0.4-0.7,0.8-0.8,1.2c-0.1,0.4-0.3,1-0.3,1.4V222.9
		L317.5,222.9z"/>
	<path fill="#525E66" d="M354.4,216.7c0.8,0,1.6,0.1,2.6,0.4c0.8,0.3,1.5,0.8,2.2,1.4l-1.5,1.5c-0.4-0.4-0.8-0.7-1.4-0.8
		c-0.5-0.3-1.1-0.3-1.9-0.3c-0.7,0-1.2,0.1-1.8,0.3c-0.5,0.3-1.1,0.5-1.4,1c-0.4,0.4-0.7,1-1,1.6c-0.3,0.7-0.3,1.4-0.3,1.9v0.4
		c0,0.8,0.1,1.6,0.4,2.5c0.3,0.8,0.5,1.4,1.1,1.9c0.4,0.4,0.8,0.7,1.2,0.8c0.5,0.1,1.1,0.3,1.8,0.3c0.5,0,1.2-0.1,1.8-0.3
		c0.7-0.1,1.1-0.5,1.5-1l1.5,1.5c-0.7,0.7-1.4,1.1-2.2,1.5c-0.8,0.3-1.8,0.4-2.6,0.4c-0.8,0-1.5-0.1-2.3-0.4
		c-0.8-0.3-1.5-0.5-2.2-1.1c-0.5-0.4-1-1-1.2-1.5c-0.3-0.5-0.5-1.2-0.7-1.9c-0.1-0.4-0.1-1-0.1-1.4s0-1,0-1.4v-0.5c0-0.4,0-1,0-1.4
		s0.1-0.8,0.1-1.2c0.1-0.4,0.3-0.8,0.4-1.2c0.1-0.4,0.5-0.8,0.8-1.2c0.3-0.4,0.7-0.7,1.1-1c0.4-0.3,0.8-0.5,1.4-0.7
		c0.4-0.1,1-0.3,1.5-0.4C353.4,216.7,354,216.7,354.4,216.7L354.4,216.7z"/>
	<path fill="#525E66" d="M379.4,218.9h-1.6V217h1.6v-3.1l2.5-0.7v3.8h2.6l-0.5,1.9h-2v9c0,1.1,0.5,1.8,1.8,1.8h1.1v1.8
		c-0.3,0.1-0.5,0.1-0.8,0.3c-0.3,0-0.5,0.1-0.8,0.1c-0.5,0-1-0.1-1.5-0.3c-0.4-0.1-0.8-0.4-1.2-0.8c-0.3-0.4-0.5-0.7-0.8-1.2
		c-0.1-0.4-0.3-1-0.3-1.5v-9.1H379.4z"/>
	<path fill="#525E66" d="M409,231.8c-1.8,0-3.1-0.4-4-1.4c-0.8-0.8-1.2-2.2-1.2-4v-9.1l2.5-0.7v9.8c0,1.1,0.3,1.9,0.7,2.5
		c0.4,0.5,1.1,0.7,2,0.7c0.5,0,1.2-0.1,1.9-0.5c0.7-0.4,1.5-1,2.2-1.8v-10l2.5-0.7v11.5c0,0.7,0,1.2,0.1,1.8c0.1,0.4,0.4,1,0.7,1.5
		h-2.6c-0.1-0.1-0.3-0.4-0.4-0.8c-0.1-0.3-0.1-0.7-0.1-1c-0.4,0.4-0.8,0.7-1.2,1.1c-0.4,0.3-0.8,0.5-1.4,0.7
		C410.1,231.6,409.6,231.8,409,231.8L409,231.8z"/>
	<path fill="#525E66" d="M439,218.5c0.4-0.5,0.8-1,1.2-1.4c0.5-0.3,1.1-0.4,1.8-0.4c0.7,0,1.5,0.3,2.3,0.7l-0.8,2.3
		c-0.5-0.3-1.1-0.4-1.6-0.4c-0.5,0-1,0.1-1.4,0.4s-0.7,0.5-1,1.1c-0.3,0.4-0.4,1-0.5,1.5c-0.1,0.5-0.1,1.2-0.1,1.9v7.4h-2.5v-10.9
		c0-1-0.3-1.9-0.7-2.9l2.3-1.1c0.1,0.3,0.3,0.5,0.4,0.8c0.1,0.3,0.3,0.5,0.3,1L439,218.5L439,218.5z"/>
	<path fill="#525E66" d="M465.3,224.9c0,1.6,0.4,2.9,1.1,3.7c0.8,0.8,1.9,1.1,3.5,1.1c0.8,0,1.4-0.1,1.9-0.4c0.5-0.3,1-0.7,1.4-1.4
		l2.2,0.8c-0.5,1-1.4,1.6-2.3,2.2c-1,0.5-2,0.8-3.4,0.8c-1.2,0-2.3-0.1-3.3-0.5c-0.8-0.4-1.6-0.8-2.2-1.5c-0.5-0.7-1-1.4-1.2-2.3
		c-0.3-1-0.4-1.9-0.4-3v-0.3c0-0.4,0-1,0-1.4c0-0.4,0.1-1,0.1-1.4c0.1-0.4,0.3-0.8,0.4-1.4c0.3-0.4,0.5-0.8,0.8-1.2
		c0.7-0.7,1.4-1.2,2.3-1.6c1-0.4,1.8-0.5,2.7-0.5c1.1,0,2,0.1,2.9,0.5c0.8,0.4,1.5,0.8,2,1.4s1,1.4,1.2,2.2c0.3,0.8,0.4,1.8,0.4,2.7
		v1.2h-10.2V224.9z M465.3,222.9h8.3v-0.3c0-0.4-0.1-1-0.3-1.4c-0.1-0.4-0.4-0.8-0.8-1.2c-0.4-0.4-0.8-0.7-1.4-0.8
		c-0.5-0.3-1.1-0.3-1.8-0.3c-0.5,0-1.2,0.1-1.6,0.3c-0.5,0.3-1,0.5-1.4,0.8c-0.4,0.4-0.7,0.8-0.8,1.2c-0.1,0.4-0.3,1-0.3,1.4
		L465.3,222.9L465.3,222.9z"/>
	<path fill="#525E66" d="M275.6,113.5L275.6,113.5L275.6,113.5c-1.5-1.8-2.9-3.5-4.5-5.2c-2.2-2.5-4.6-4.8-7.2-7.1
		c-6.4-5.7-13.8-11.2-21.6-15.3l0,0c-8.3-4.4-16-6.8-23.5-7.9c-5.1-0.8-10.1-1-15.2-0.7l-3,4l-0.4-0.4l2.7-3.5
		c-2.3,0.1-4.5,0.4-6.8,0.7l-0.1-0.5c2.5-0.3,4.9-0.5,7.4-0.7l4.9-6.4c-2,0.1-4.2,0.3-6.4,0.4v-0.5c2.3-0.3,4.6-0.4,7-0.4l2.9-3.8
		l0.4,0.4l-2.6,3.4c5.5-0.1,10.8,0.1,16,1c7.6,1.2,15.2,3.8,23.3,7.9c6.6,3.3,12.7,7.5,18.4,12.3c5.9,4.9,11.3,10.5,16.1,16.7
		c7.5-0.5,14.7-3.3,21.7-6.8c7-3.7,13.8-8.3,20.5-13c1.6-1.2,3.4-2.3,4.9-3.4c1.5-1.1,3.1-2.2,4.8-3.1c-0.1-0.8-0.1-1.6-0.1-2.2
		c-0.1-0.8-0.1-1.5-0.3-2.3l0,0c-0.3-2.3-0.4-4.6-0.7-7c-1.4-9.8-3.3-19.5-6.1-29.1l-4.8,3.8l-0.4-0.4l4.9-4
		c-0.7-2.5-1.5-4.8-2.3-7.2l0.5-0.1c0.8,2.3,1.5,4.6,2.2,7.1l6.8-5.5c-0.4-1.4-0.7-2.6-1.1-4l0.5-0.1c0.4,1.2,0.7,2.5,1.1,3.7
		l4.2-3.4l0.4,0.4l-4.5,3.5c0.5,1.9,1.1,4.1,1.5,6.1c1.8,7.2,3.3,14.5,4.2,21.8c0.4,3,0.8,6,1.1,8.7c0.1,1.1,0.1,2,0.3,2.9
		c0.1,0.8,0.1,1.5,0.1,2.3c19.7-11.6,34.5-10.1,46.8-1.8c5.2,3.5,9.8,8.3,14.3,13.8c4.4,5.2,8.9,11.6,13.4,19.4l3.8-3.5l0.4,0.4
		l-4,3.7c1.4,2.2,2.6,4.4,3.8,6.6l-0.5,0.3c-1.2-2.2-2.6-4.2-3.8-6.4l-6.4,6c1.2,2.2,2.6,4.5,3.8,6.7l-0.5,0.3
		c-1.2-2.2-2.5-4.4-3.7-6.6l-4.4,4.1l-0.4-0.4l4.5-4.2c-2-3.4-4.1-7-6.3-10.2c-8.3-12.3-16.1-20.1-23.6-24.4
		c-10.1-5.6-22.1-6.4-36.9,1.4c0.4,5.7,0.5,11.5,0.5,17.2c0,3.3,0,6.4,0,9.7l4.1-2.9l0.3,0.5l-4.4,3.1c0,2.3,0,4.8-0.1,7.1h-0.5
		c0-2.2,0-4.4,0.1-6.7l-6.7,4.6c0,2.9,0,5.9-0.1,8.7H336c0-2.7,0-5.6,0.1-8.3l-5.1,3.5l-0.3-0.5l5.3-3.8c0-3.1,0-6.4,0-9.6
		c-0.1-6-0.3-12-0.7-18.2c-1.8,1.1-3.4,2.2-5.2,3.4c-1.9,1.2-3.8,2.6-5.7,3.8c-8.9,6.1-16.9,11.6-25.5,15.7
		c-6.8,3.3-13.9,5.5-21.8,6.3c1.1,1.5,2,3,3,4.4l-0.5,0.3c-1-1.5-2-3-3.1-4.6c-1.8,0.1-3.4,0.3-5.2,0.3V115c1.6,0,3.3-0.1,4.8-0.1
		C276.3,114.2,276,114,275.6,113.5L275.6,113.5z"/>
</g>
</svg>
