<?xml version="1.0" encoding="utf-8"?>
<!-- Generator: Adobe Illustrator 18.1.0, SVG Export Plug-In . SVG Version: 6.00 Build 0)  -->
<svg version="1.1" id="Layer_1" xmlns="http://www.w3.org/2000/svg" xmlns:xlink="http://www.w3.org/1999/xlink" x="0px" y="0px"
	 viewBox="16.5 297.9 580.1 222.6" enable-background="new 16.5 297.9 580.1 222.6" xml:space="preserve">
<g>
	<path fill="#FFFFFF" d="M377.5,516.3"/>
	<path fill="#FFFFFF" d="M397.4,503l-18.3,12.4"/>
	<path fill="#FFFFFF" d="M399.1,502.2"/>
	<path fill="#FFFFFF" d="M377.5,516.3c0-8.3,0-19.1,0-27.4c0-16.6-0.8-32.4-1.7-48.9c-5,2.5-9.9,5.8-14.1,9.9
		c-5,4.1-10.8,6.6-14.9,10.8c-24.1,16.6-45.6,31.5-68.9,42.3c-18.3,8.3-38.2,14.1-58.9,17.4l0,0h-1.7l0,0l0,0l-0.8-1.7l0,0
		c-0.8-0.8-1.7-1.7-2.5-2.5l0,0l0,0l0,0c-4.1-5-7.4-9.9-12.4-14.1c-5.8-6.6-12.4-13.2-19.1-19.1c-17.4-14.9-37.3-30.7-58.1-41.5l0,0
		c-24.9-13.2-44.8-20-64.7-24.1c-13.2-1.7-26.6-2.5-41.5-1.7l0,0h-1.7l0,0l0,0l0.8-1.7l0,0l13.2-17.4l0,0l0.8-1.7l0,0l0,0H33l0,0
		c14.9,0,29.1,0,43.1,2.5c20.8,4.1,41.5,10.8,63.1,21.6c17.4,8.3,34,20,49.7,33.2c16.6,13.2,30.7,29.1,43.9,44.8
		c20-1.7,39.8-8.3,58.9-18.3c19.1-9.9,37.3-23.3,55.6-35.7c5-2.5,9.9-6.6,13.2-9.9c4.1-2.5,8.3-5.8,13.2-8.3c0-1.7,0-5-0.8-5.8
		c0-1.7,0-4.1-0.8-6.6l0,0c-0.8-6.6-0.8-12.4-1.7-19.1c-4.1-26.6-8.3-52.3-16.6-78l0,0v-1.7l0,0l0,0l0.8-0.8l0,0l18.3-14.1l0,0
		l0.8-0.8l0,0l0,0v1.7l0,0c1.7,5.8,2.5,10.8,4.1,16.6c5,19.1,8.3,39,11.6,58.9c0.8,8.3,1.7,16.6,2.5,24.1c0,2.5,0.8,5.8,0.8,7.4
		c0,1.7,0,4.1,0.8,6.6c53.1-31.5,93.8-27.4,127-5c14.5,10.2,26.9,21.8,38.6,37.6c11.6,14.1,24.1,31.5,36.5,52.3l0,0l0.8,0.8l0,0l0,0
		l-0.8,0.8l0,0l-17.4,16.6l0,0v1.7l0,0l0,0l-0.8-0.8l0,0c-5.8-9.9-11.6-19.1-17.4-27.4c-23.3-33.2-43.9-54.8-63.9-65.6
		c-27.4-14.9-60.6-17.4-99.6,4.1c0.8,14.9,0.8,31.5,1.7,46.4c0,8.3,0,19.1,0,27.4"/>
</g>
</svg>
