<?xml version="1.0" encoding="utf-8"?>
<!-- Generator: Adobe Illustrator 18.1.0, SVG Export Plug-In . SVG Version: 6.00 Build 0)  -->
<svg version="1.1" id="Layer_1" xmlns="http://www.w3.org/2000/svg" xmlns:xlink="http://www.w3.org/1999/xlink" x="0px" y="0px"
	 viewBox="0 0 612 792" enable-background="new 0 0 612 792" xml:space="preserve">
<g>
	<path fill="#424546" d="M360.9,488.7"/>
	<path fill="#424546" d="M376.7,478.1l-14.5,9.8"/>
	<path fill="#424546" d="M378.1,477.5"/>
	<path fill="#424546" d="M360.9,488.7c0-6.6,0-15.2,0-21.8c0-13.2-0.6-25.7-1.4-38.8c-4,2-7.9,4.6-11.2,7.9c-4,3.3-8.6,5.2-11.8,8.6
		c-19.1,13.2-36.2,25-54.7,33.6c-14.5,6.6-30.3,11.2-46.8,13.8l0,0h-1.4l0,0l0,0l-0.6-1.4l0,0c-0.6-0.6-1.4-1.4-2-2l0,0l0,0l0,0
		c-3.3-4-5.9-7.9-9.8-11.2c-4.6-5.2-9.8-10.5-15.2-15.2c-13.8-11.8-29.6-24.4-46.1-33l0,0c-19.8-10.5-35.6-15.9-51.4-19.1
		c-10.5-1.4-21.1-2-33-1.4l0,0h-1.4l0,0l0,0l0.6-1.4l0,0l10.5-13.8l0,0l0.6-1.4l0,0l0,0h1.4l0,0c11.8,0,23.1,0,34.2,2
		c16.5,3.3,33,8.6,50.1,17.2c13.8,6.6,27,15.9,39.5,26.4c13.2,10.5,24.4,23.1,34.9,35.6c15.9-1.4,31.6-6.6,46.8-14.5
		c15.2-7.9,29.6-18.5,44.2-28.4c4-2,7.9-5.2,10.5-7.9c3.3-2,6.6-4.6,10.5-6.6c0-1.4,0-4-0.6-4.6c0-1.4,0-3.3-0.6-5.2l0,0
		c-0.6-5.2-0.6-9.8-1.4-15.2c-3.3-21.1-6.6-41.5-13.2-61.9l0,0v-1.4l0,0l0,0l0.6-0.6l0,0l14.5-11.2l0,0l0.6-0.6l0,0l0,0v1.4l0,0
		c1.4,4.6,2,8.6,3.3,13.2c4,15.2,6.6,31,9.2,46.8c0.6,6.6,1.4,13.2,2,19.1c0,2,0.6,4.6,0.6,5.9c0,1.4,0,3.3,0.6,5.2
		c42.2-25,74.5-21.8,100.9-4c11.5,8.1,21.4,17.3,30.7,29.9c9.2,11.2,19.1,25,29,41.5l0,0l0.6,0.6l0,0l0,0l-0.6,0.6l0,0l-13.8,13.2
		l0,0v1.4l0,0l0,0l-0.6-0.6l0,0c-4.6-7.9-9.2-15.2-13.8-21.8c-18.5-26.4-34.9-43.5-50.8-52.1c-21.8-11.8-48.1-13.8-79.1,3.3
		c0.6,11.8,0.6,25,1.4,36.9c0,6.6,0,15.2,0,21.8"/>
</g>
</svg>
