<?xml version="1.0" encoding="utf-8"?>
<!-- Generator: Adobe Illustrator 18.1.0, SVG Export Plug-In . SVG Version: 6.00 Build 0)  -->
<svg version="1.1" id="Layer_1" xmlns="http://www.w3.org/2000/svg" xmlns:xlink="http://www.w3.org/1999/xlink" x="0px" y="0px"
	 viewBox="0 0 30 50" enable-background="new 0 0 30 50" xml:space="preserve">
<g>
	<path fill="#FFFFFF" d="M27.2,45.4V5.8c0-1.9-1.4-3.5-3.2-3.5H5.3c-1.8,0-3.2,1.6-3.2,3.5v39.9c0,1.9,1.4,3.5,3.2,3.5h18.5
		C25.7,49.2,27.2,47.6,27.2,45.4L27.2,45.4z M4.2,10.4h20.8v26.8H4.2V10.4z M5.3,4.5h18.5c0.6,0,1.1,0.6,1.1,1.3v2.4H4.2V5.8
		C4.2,5,4.7,4.5,5.3,4.5L5.3,4.5z M4.2,45.4v-5.9h20.8v5.9c0,0.6-0.5,1.3-1.1,1.3H5.3C4.7,46.8,4.2,46.3,4.2,45.4L4.2,45.4z"/>
	<path fill="#FFFFFF" d="M16.8,42.2h-4.3c-0.6,0-1,0.5-1,1.1s0.5,1.1,1,1.1h4.3c0.6,0,1-0.5,1-1.1S17.3,42.2,16.8,42.2L16.8,42.2z"
		/>
</g>
</svg>
