<?xml version="1.0" encoding="utf-8"?>
<!-- Generator: Adobe Illustrator 18.1.0, SVG Export Plug-In . SVG Version: 6.00 Build 0)  -->
<svg version="1.1" id="Layer_1" xmlns="http://www.w3.org/2000/svg" xmlns:xlink="http://www.w3.org/1999/xlink" x="0px" y="0px"
	 viewBox="0 0 612 792" enable-background="new 0 0 612 792" xml:space="preserve">
<g>
	<path fill="#4B5053" d="M362.4,352.2c-4.3,2-7.8,5.1-11.4,7c-2.7,2.7-7,6.3-11.4,8.2c-15.7,10.6-30.9,21.9-47.4,30.5
		c-16.4,8.6-32.9,14.1-50.1,15.7c-11.4-13.3-23.1-27-37.2-38c-13.3-11.4-27.4-21.1-42.3-28.2c-18.4-9-36-14.9-53.6-18.4
		c-11.7-2-23.9-2-36.8-2h-0.8l-0.8,1.6l-11,14.1l-0.8,1.6h1.6c12.5-0.8,24.3,0,35.2,1.6c16.8,3.5,33.7,9.4,55.2,20.4
		c17.6,9,34.5,22.7,49.3,35.2c5.9,5.1,11.4,10.6,16.4,16.4c4.3,3.5,7,7.8,10.6,12.1c0.8,0.8,1.6,1.6,2,2l0.8,1.6h1.6
		c17.6-2.7,34.5-7.8,50.1-14.9c20-9,38-21.9,58.7-36c3.5-3.5,8.2-5.9,12.5-9c3.5-3.5,7.8-6.3,12.1-8.2l0,0c2-1.2,0,0,0,0l17.6-9.8
		l0,0c33.3-18.4,61.5-16.1,84.6-3.5c16.8,9,34.5,27.4,54.4,55.6c5.1,7,9.8,14.9,14.9,23.1l0.8,0.8v-1.6l14.9-14.1l0.8-0.8l-0.8-0.8
		c-10.6-17.6-21.1-32.5-30.9-44.6c-9.8-13.3-20.4-23.1-32.9-32.1c-28.2-19.2-63-22.7-108.1,4.3"/>
</g>
<g>
	<path fill="#4B5053" d="M365.9,430.6"/>
	<path fill="#4B5053" d="M382.7,419.2l-15.7,10.6"/>
	<path fill="#4B5053" d="M384.3,418.8"/>
	<path fill="#4B5053" d="M364.3,365.6c0.8,14.1,1.6,27.4,1.6,41.5v23.1l17.6-12.1v-23.1c-0.8-12.5-0.8-26.6-1.6-39.5l0,0
		c0,0-2.7-13.3-2.7-12.9l0,0c-0.8-2-0.8-4.3-0.8-5.5s-0.8-4.3-0.8-6.3c-0.8-6.3-1.6-13.3-2-20.4c-2.7-16.8-5.5-33.7-9.8-50.1
		c-1.2-5.1-2-9-3.5-14.1V245l-0.8,0.8l-15.7,12.1l-0.8,0.8v1.6c7,21.9,10.6,43.9,14.1,66.2c0.8,5.9,0.8,10.6,1.6,16.4
		c0.8,2,0.8,4.3,0.8,5.5c0.8,0.8,0.8,3.5,0.8,5.1"/>
</g>
</svg>
