<?xml version="1.0" encoding="utf-8"?>
<!-- Generator: Adobe Illustrator 18.1.0, SVG Export Plug-In . SVG Version: 6.00 Build 0)  -->
<svg version="1.1" id="Layer_1" xmlns="http://www.w3.org/2000/svg" xmlns:xlink="http://www.w3.org/1999/xlink" x="0px" y="0px"
	 viewBox="0 0 30 30" enable-background="new 0 0 30 30" xml:space="preserve">
<g id="Layer_1_1_">
	<circle fill="none" stroke="#FFFFFF" stroke-width="2" stroke-miterlimit="10" cx="15" cy="15.3" r="13.4"/>
	<path fill="#FFFFFF" stroke="#FFFFFF" stroke-miterlimit="10" d="M22.7,14.7H11.1l0,0h-4c-0.2,0-0.3,0-0.4,0.1s-0.2,0.3-0.1,0.4
		c0,0.4,0.2,0.6,0.5,0.6h11.6l0,0h4c0.2,0,0.3,0,0.4-0.1c0.1-0.1,0.2-0.3,0.1-0.4C23.2,14.9,23.1,14.7,22.7,14.7z"/>
	<path fill="#FFFFFF" stroke="#FFFFFF" stroke-miterlimit="10" d="M14.4,7.4v11.8l0,0v4.1c0,0.2,0,0.3,0.1,0.4
		c0.1,0.1,0.3,0.2,0.4,0.1c0.4,0,0.6-0.2,0.6-0.5V11.4l0,0v-4c0-0.2,0-0.3-0.1-0.4C15.3,7,15.1,6.9,15,7C14.7,6.9,14.4,7.1,14.4,7.4
		z"/>
</g>
<g id="Layer_2">
</g>
</svg>
